<?xml version="1.0" encoding="UTF-8"?>
<svg id="katman_1" xmlns="http://www.w3.org/2000/svg" version="1.1" xmlns:xlink="http://www.w3.org/1999/xlink" viewBox="0 0 1043.3 1255.6">
  <!-- Generator: Adobe Illustrator 29.0.0, SVG Export Plug-In . SVG Version: 2.1.0 Build 186)  -->
  <defs>
    <style>
      .st0 {
        fill: #ffe3b3;
      }

      .st1 {
        fill: #fff;
      }

      .st2 {
        fill: #feddaa;
      }

      .st3 {
        fill: url(#Adsız_degrade_47);
      }

      .st4 {
        fill: #ff5b5b;
      }
    </style>
    <linearGradient id="Adsız_degrade_47" data-name="Adsız degrade 47" x1="290.4" y1="595.5" x2="290.4" y2="1178.4" gradientUnits="userSpaceOnUse">
      <stop offset=".2" stop-color="#feddaa"/>
      <stop offset=".6" stop-color="#ff5b5b"/>
    </linearGradient>
  </defs>
  <path d="M1041.1,826.4c-6.6-8.7-38-4.5-48-2.8,5.5-4.5,12.4-7.1,18.5-11,11.3-7.1,31-20.3,17.9-34.9-9.7-10.8-25.4-6.3-37.6-3.8-20.4,4.2-40,11.5-59.8,17.7,14.5-18.1,27.8-50.7,3.3-66.8-20.8-13.7-24.2,9.2-34.3,21.3-24.1,28.9-64.3,21.6-83.5,56.5-1,1.7-4.1,10.6-4.6,10.9-.6.3-10.1-1.4-14-.5-4.2,1-15.2,9.6-15.9,14.1-.6,3.4-1.1,24.4-2.1,25.4-35.6,1.5-70.4-11.1-99.3-31.2-6.4-4.4-28.2-20.6-30.9-26.1-.5-.9-1.1-1.4-.8-2.7,81.3-10.1,148.4-68.6,169.1-147.9,61.5,11,83.3-59.9,91.6-106.9,1.7-9.6,2.9-19.4,3.8-29.2,3.1-4.7,37.1-1.4,28.4-16.4-4.8-8.3-21-4.4-28.9-6-7.5-31.4-35.4-50.1-65.7-55.8-2.3-14-5.4-27.9-10.2-41.3-8.8-24.5-20.6-41.8-40-59-2-1.8-10.6-7-11-7.5-.2-.1-.4-2.1.6-2,24.8-11,53.6-25.4,72.4-45.4,11.9-12.6,24.7-33.7,43.6-37.4,32.4-6.3,69.5-5,100.1-18.9,12.8-5.8,17.9-11,7.8-23.2-24.7-30.1-66.4-38.6-103.5-32,3.5-16.7,7.5-33.1,6-50.4-1.1-12.3-20.5-48.7-33-52-23.2-6.2-24.7,24.1-30,39-9.1,25.6-27,49.3-49.7,64.3-1.6,1-6.9,4.7-8.1,5-2.5.6-7.6-5.1-9.9-6.7-37.2-24.5-81.4-21.5-123.3-12.7-11.2,2.4-22.1,6-33.3,8.4L521.6,2.7,516.5,0C379.2,14.5,244.2,78.2,164.4,193.7c-8.7,12.6-20.2,30-26.2,43.8-1.8,4-5.1,10.6-3.8,14.8l140.8,129.7c-38-9.3-77.4-5.9-115,3.5-53.9,13.4-109.5,46.7-136.1,96.8-28,52.7-32.3,128.1-9,183.3,16.2,38.6,59,57.4,99.5,52.2,4.8-.6,18.9-2.4,20.4-7.6,2.1-7.2-7.7-6.5-13.1-8.5-41.6-15.1-46.4-67.5-35-104.5,15.9-51.7,54.9-89.4,111.8-84.2,6.8.6,13.7,2.3,20.5,3-4.5,21.5-5,39.5,6.8,58.7,12.5,20.3,32.8,28.6,55.8,31.2,2.8.3,12.6-.9,13.2,1.7,0,.6-1,5.1-.8,7.8.5,5.5,4.3,8.8,4.9,14.1,4,35.5-25.8,76.1-56,92-57.3,30-113.9,30.6-145.9,98.1-34.3,72.4-40.5,174-3.7,246.4,17.4,34.1,42.4,51.8,74.9,70.1,47.6,26.9,103.5,44.8,157.7,52.3,3.6,13.4,11.4,24.4,20,35,24.9,30.9,30,25.9,67.4,25.5,19.1-.2,41.4,1.3,60-2,5.5-1,4.7-9.8,6.5-14,3.6,2.7,6.5,6.7,11.5,7,14.1-1.7,31.2-.6,44.9-3.1,4.7-.9,6.8-1.3,10-5,16.1-18.2,16.9-42.3,9.6-64.4-1-3.2-5.5-11.2-5.7-13.1,0-1.6,7.6-29.4,8.5-31.1,1.8-3.3,15.9-13.6,19.8-17.2,23.6-22.2,38.4-50.1,50-80,17.4,22.1,19.2,52.8,14.6,79.6-5.3,2.7-25.1,8.9-26.1,14.9-.6,3.7,2.9,13.8,3.8,18.2,1.1,5.5,1.3,8,2.9,14,3.6,13.6-2.3,15.3-6.9,26.5-7.8,19-9.4,41.8,5.7,57.7,5.9,6.2,10.7,6.5,19,7,5.8.4,27.7.8,31.5-1.6,2.2-1.4,3.3-4.8,6.5-4.5,1.4.1,6.1,4.2,8.8,5.3,19.8,8.3,75.7,12.6,98.2,12.8,45,.5,59.9-37.6,54.3-77.2-7.3-51.6-60.1-71.1-103.7-47.3-1.7.9-11.3,8.3-12,7.5-.2-3.8,2.8-13.7,0-16.5l-29.9-10.6c0-13.1,1.7-26.3.9-39.4-1.5-24.1-11-50.2-25.6-69.4-1.8-2.3-11.4-12.4-11.4-13.6,11.8-28.7,20.9-60.1,22-91,.2-5.5-.2-11,0-16.5,37.3,16.8,77.9,24.1,118.9,20.1,1.6,14.6,22.3,33.4,37.1,29.4,3.4-1,8.4-6.4,10.4-6.5,4.5-.3,17,3.5,23.1,3.9,23.8,1.6,47.5-2.4,71-5,13.4-1.5,47.2-2.6,57.4-9.6,7.1-4.9,10.6-14.2,4.5-21.4-7.4-8.6-27.7-9.2-38.5-11.6-1.1-.3-3.3,0-3-1.5,18.1-7.7,37.8-14.5,55.3-23.2,8.8-4.4,33.3-17.6,23.7-30.1ZM628.6,1128.4c1-1.3,5.1-1.3,6.6-.4,4.1,2.5,5.4,24.5-2,26.5.6-4.5-6.3-23.8-4.6-26.1ZM640.4,1200.2c-1.7,3.4-5.6,6.1-9,3-4.3-4.1,1.3-21.9,7.6-23.5,3.2-.8,6.3,2.1,6.3,5.3s-4.3,14-4.9,15.2ZM765.9,1135.8h0c11-1.5,21.2,5.7,9.3,12.4-6.1,3.4-13.7,5.3-20,9-5.8,3.4-15,14.4-20.6,14.3-3,0-5.2-2.5-5.5-5.4-1.6-15.4,24.1-28.5,36.8-30.3ZM793.1,831.5c3.2-2.1,16.2,14.3,14,17-.6.6-13.8,2.3-16,3-.3-6.7.7-13.4,2-20ZM800.7,667.6c-19.1,40.1-57.5,81.4-98.5,99.4-111.9,48.9-229.3-12.3-301-98.5-.9-1-2.8-1.9-4-3.5-25.5-32.1-44.6-71.2-52.9-111.4l111.9-42.6,6-.4c1,7.4,1.9,14.8,3.5,22,2.5,11.3,6.5,22.1,9.4,33.3-25.1,16.3-48.4,36.6-63.1,63-2.8,4.9-12.1,23.5-11.8,28.1,0,.5,2.8,7.3,3,7.6h-.1c.4.6,3.4,2.7,4,2.1,1.9-10.9,6.5-22.1,11.8-31.7,8.2-14.8,24.6-33.4,37.7-44.3,3.7-3.1,18.6-14.9,22.1-15.9,2-.5,1.1.3,1.6,1.2,17,30.5,37.1,56.7,71.6,68.4,19.5,6.6,50.1,6.2,70.7,4.3,22.2-2.1,40-21.5,50-40,3.2-5.9,5.2-14,9-19,6.2-8.3,29.3-27.5,38.8-31.2,3-1.1,6.6-2.8,9.7-1.3-9.7,12.4-18.8,21.9-19,39,0,1.3,1.2,10.1,1.5,10.5.7,1.1,3.2.7,4.5,1.5,1.4.8,2.3,3.9,3.7,5.3,5.4,5.6,15.1,7,21.6,10.1,1.1.5,1.1,2.4,2.4,2.8,4.4,1.5,14.9-2.9,19.9-2.9,2.7,0,5.2,1.4,7.9,1,2-.3,3-2.4,6-2,1.6.3,14.1,11.6,17.7,13.5,3,1.6,12.6,3.1,12.8,7,.3,4.9-6,19.6-8.4,24.6ZM570.2,816.6h0c-2.2-9.9-6.5-17.9-8.8-26.7-.2-.8-.7-2.3.3-2.3,21.8,5,44.1,7.8,66.4,8.1,2.3,6.5,3.5,13.2,5.1,19.9,5.7,23.5,7.3,45.1,6,69.5-.3,5.5-1.7,22.3-3.3,26.7-.8,2.3-3.1,3.3-5.3,3.7-11.3,2.3-27.4,1.5-38.9,1-3.4,0-15.5,1.3-16.4-1.6,1.3-32.7,2.1-66.2-5.1-98.3ZM538.5,815.7c-3.3-14.1-11.9-29.5-20.3-41.1,1.2-.9,11.5,2.8,12.5,4s1.1,4.3,2,6c10.5,20.4,20.3,41.2,21.5,64.5,1.2,21.4-.6,43.2-1,64.5h-.1c-10.8,0-10.3-2.8-11-12.5-1.9-28,3-57.6-3.6-85.4ZM468.7,922.7c-9.4-6.6-17-18.6-19.2-29.8-5.9-30.4,15.3-40.6,27.9-63.6.8-1.6,2.5-10.2,5.8-7.7h0c.2.3-1.9,4-2.3,5.3-5.3,18-10.7,36.6-12.7,55.3-.9,9-.5,10.2-2.9,19.1-2.7,10.3,6.1,12.2,3.4,21.4ZM408.2,989.1c2.5,17.4,5.4,42.9-13.2,52.6-8.8,4.6-16.4-1.4-25.1-1.2-8.3.2-15.4,7.2-25,7.1-13.3-.2-17.3-7.9-27.5-10.6-11.4-2.9-23.6,2.2-32.6-7.4-5-5.4-16.5-32.4-16.5-39.5.1-13.7,5.5-36.6,10.5-49.5,1.1-2.8,9.5-22.2,10.6-22.9,2.1-1.4,5.7,1.6,7.5,2.3v-.2c24.2,9.9,68.2,12.6,94.9,8.5,7.7-1.2,7.7-7.6,9.1-7.9,2.2-.5,12.8,8.3,14.5,10.5,6.7,8.3,17.3,37.3,16.9,47.8-.3,7.8-4.2,17.3-8.1,24l-4.8,6.7c-.8-6.7-1.2-13.6-2.2-20.3-.6-4.3-4.1-25.1-6.2-26.8-2.3-1.8-5.6-1.3-6.9,1.4-1.5,3.1,3.4,20.4,4.1,25.4ZM376.2,920.6c-20.1,1.2-38.1.7-58-3.5-10.8-2.3-33.6-5.9-25.5-21.5,2.2,2.2,4.1,4.5,6.8,6.2,13.7,8.9,60.6,19.1,76.7,17.8,1.3,0,14.8-4.1,15-2.5.8,5.6-11,3.3-15,3.5ZM317.2,882.6l-1,16c-1.8,1.8-14.8-4.5-15.9-7.6-.6-3.6,13.4-9.6,16.9-8.4ZM387,908.9c-5,2.2-12.4,1.6-17.8,1.7v-16h.1c.7-.7,15.4,7.1,16.9,8.6,1.6,1.5,3.8,4.4.8,5.7ZM360.2,890.1v19.5l-34.9-7c-.7-40.3,17.5-82.7,54.1-102.3,17.9-9.6,41.6-13.8,61.7-17.3,21.1-3.6,42.8-7.3,64.2-5.8l-17.2,34.3c-4,2.2-7.9-2.8-10.4-2.8s-3.4,2.5-6,2.9c-13.5,2.2-26.6.9-41.5,4.5-33.2,8.1-70,36.7-70,74ZM494.2,766.1c1.7-4.2,7.2-1.4,9,1.5-1.1-.5-10.1,1.3-9-1.5ZM495.8,818.5c3.1-7.6,6.6-19.6,11.6-26.3,3.6-4.9,7.9,8.1,9.1,11.6,7.2,21.9,7.8,50.8,7.7,73.8h0c0,10-.3,20-1,30-1.4,1.4-6.7-3.3-8-4-.7-.4-4.2-2.2-4.4-2.2-2.8-1-8.7-1.3-10.6-2.4-1.7-1-3-6.1-5-7-4.7-2.3-6.2.7-10.8-6.2-11.8-17.5,4.1-50,11.3-67.3ZM488.4,920.8h0c3.4-3.4,11.8.7,14.2,3.8,3.6,4.8,3.4,9.9,5.3,14.7,5.6,14,23,24.4,26.5,35.6,1.6,5.3-2.1,10.3-7.7,9.7-15.1-1.5-34.4-31.5-38.1-45-1.3-4.6-3.8-15.3-.3-18.8ZM608,629.9c-9.6,2.9-22.1,6.4-29.8-1.8,9.8-15.9,14.6-36,17.7-54.3,7.6-45,6.9-92.2.3-137.2h0c17.9-1.4,35.3-1.7,52.5,4,6.7,2.2,27.6,12.2,32,17,12,13.2,9.5,43.9,7.3,60.4-5.9,44.4-34.5,98.1-80,111.9ZM648.7,626.6v-1c.7.3.7.7,0,1ZM643.2,630.6c-1.5-1.5,2.7-3.2,3.5-4,.5,1.5-2.3,5.2-3.5,4ZM633.2,636.6l9-6c1.6,1.6-7.3,6.6-9,6ZM595,429.2c-4.7-17.4-8.1-39-19.5-53.5-23.4-29.8-40.2,20.4-44.7,38.1-1.2,4.6-8.1,37.4-6.7,38.8.1.2,2.6,0,3.9.6,2.1,1.2,4.8,5.1,7.4,4.4.7-.2,8.6-7.8,10.8-9.3,2.9-2,19.3-11.7,21.4-11.6.7,0,2,2.3,1.5,3-8.3,3.7-17.7,9-24.5,15-5.4,4.7-8.8,10.3-13.4,15.5-2.1,2.3-5.3,3.8-7,5.9-1.7,2.1-4,11.5-5.5,11.5h-41.7c-.8-52.7,27.8-122.6,82.2-139.3,65.8-20.1,116.8,44,126.8,102.3-24.1-24.7-58.7-25.5-91-21.4ZM526.7,501.5c-1.4-.3-1.3-1.8-1.1-3,.3-1.8,4.1-10.5,5.1-12.9,3.2-7.4,7.7-13.9,11.5-21h0c0,0,18.5,12.9,18.5,12.9l1.5,2.5c-4.3,2.6-33.3,22-35.5,21.5ZM539.2,619.6c-.7.7-7.4-4.2-8.5-5-31.5-23.7-48.7-67.8-52.5-106l42,1c1.9,37.2,5.5,75.1,19,110ZM705.3,507.2c1.1-3.2,20.1-5.3,23.9-4.6h0c0,0,1,43.9,1,43.9-9.9-.2-19,4.9-26.5,11-10.6-14.9,2.9-33.5,1.6-50.3ZM799.9,535.9c-7.4,11.5-22.1,25.9-37.1,22.5-.7-.2-5.4-2.7-5.6-3-2.2-3.8,14.4-21.4,18-24.3,4.7-3.6,23.8-15.2,28.7-10.3h0c3.5,3.6-1.8,11.8-4,15.1ZM763.1,482.6l-17,8,6.5-17c2,.8,11.8,7.1,10.5,9ZM809.1,632.6h0c-.8,1-10.8-5.1-12.3-6.1-1.4-.9-11.4-8.2-9.7-9.8,4.1,1.6,11.7-5.7,14-4.6,6.1,3,9.4,14.1,8,20.5ZM812.5,609.6c-.3,1-.2,2.7-1.9,2-.9-.4-4.7-4.4-4.5-5.4.2-.7,8.3-7.4,9-6.6h0c.5.5-2,8.6-2.5,10ZM850.6,438.6c6,0,18.2,5.5,23.5,8.5,10.5,5.9,19.5,17.8,24.2,28.8,1.4,3.2,5.6,11.7,2.1,13.5l-51.2,18.2c1.8-15.7,2.6-31.7,2-47.5-.3-6.3-1.7-13.7-2.1-20-.2-1.7-.2-1.5,1.5-1.5ZM839.4,572.4c2.4-7.4,7.5-13.4,9.4-21.6,2.8-12-2.4-20.5-.7-32.2l55.5-13c2.6-.5,1.5,5.7,1.5,7.5-1.7,31.5-17.2,91.1-41.5,112.5-4.7,4.2-17.9,12-24,12s-13.3.7-16,0h0c-.5,0-1.7-1.5-1.3-2.3,3.1-9.1,6.1-18.3,8.6-27.5,3-11.2,5.1-24.8,8.6-35.4ZM832.1,506.6c-6.6-5.2-15.4-5-23-7.6l-5-55.9c0-1.3.5-1.8,1.7-2.3.9-.4,11-2.2,11.8-2.2h14.5c1.9,22.7,2.5,45.4,0,68ZM790.7,346.6c1.1.6,9.9,9.7,10.9,11.1,2.2,3.1,5.9,9,7.9,12.2,11.2,18.1,18.6,39.5,20.7,60.7-9.5-1.2-18.8,2.4-28.1,1.5-4.9-15.7-8.1-35.3-18.5-48.5-19.8-25-35.1,7.7-40.9,25-5.6,16.9-8.7,35.4-10.5,53,5.7-2.6,8.7,4.2,13.5,6,7.8-13.6,26-28,41.5-31.5.7-.2,7.6-1.3,5,1.5-.6.7-14,5.8-17,7.5-12.8,7.4-16.7,15.5-26,25.5h-.1c-.3.4,0,1.9-1.6,3-1.5,1.1-3.6,1.1-5.4,1.1-1.1,2.8-4,14.4-5.6,14.9s-5.8-1.6-8-1.8c-7.8-.6-14.9.2-22.4,1.9,0-7.8,0-15.8-1-23.5-1-9.1-6.5-26.7-6-34,.4-4.9,5.9-17,8.2-21.9,10-20.9,26.9-42.2,47.2-53.8,7.2-4.1,28.8-14.1,36.2-9.9ZM605.4,222.4c48.7-27,105.1-11.5,157.7-28.3,8.2-2.6,18.2-9.6,26-12,2.3-.8,5.3,0,7-1,.9-.5,1.9-3.2,3.5-4.5,27.5-22,43.7-32.2,58-67,3.9-9.6,6.2-26.1,10.3-33.7,4.1-7.6,9.6-8,15.7-2.3s20.3,31.5,21.4,39.6c1.7,12.8-2.3,38.4-7.4,50.4-3,7.1-5.5,14.7-9.3,21.7-18.6,34.6-52.7,57.9-88.1,72.9-2.2,1.4-4,5.1-1.8,7.2v-.2c.6.7,2.2,1.2,3.2,1.2,4.3,0,18.5-7.4,23.1-9.8,29.4-15.4,53.8-36.7,70.5-65.5,2-3.3,6.9-15.6,8.9-17.1,1.8-1.3,8.9-2.1,11.6-2.4,29.2-3.7,72.5,4.4,89.8,30.9,3.4,5.2-1.5,6.2-5.9,8-31.3,13-66.7,11.7-98.9,18.1-23.9,4.7-43.8,38.9-63.2,53.7-17.9,13.6-38.5,23.2-59.1,32-1.9.3-18.8-11.9-22.6-14-30.8-17.5-70.1-28.4-105.3-32.7-3.4-.4-9.3-.8-16.3-1.2-7.8,1.9-15.4,4.5-22.2,8.5,15.9.4,32.7,2,45.7,3.8,43.3,6.3,86.6,22.6,120.6,50.3-6.4,2.9-13.2,4.5-19.7,7.3-29.3,12.6-49.5,36.2-64.2,63.8-1,1.9-2.9,8.1-3.2,8.4-1.8,1.7-1.7-.6-2.1-1.4-26.8-52.5-73.7-95.1-137.1-73.3-64.6,22.2-88.1,93.6-90.8,155.7,0,1.3.6,3.2-.6,4.1-37,15.8-75.1,29.2-109.4,50.5-1.7.8-9.5-.2-10-1.6h.3c0,0-6-44.6-6-44.6-5.4-68.5,98.3-147.6,148.6-183.3,18.3-13,44-31.3,66.8-33.2,1.3,0,2.7,0,4.1,0,2.9-2.9,5.9-5.8,8.7-8.9-.3,0-.6,0-.7,0-.2-1.7,0-3.1.8-4.7,1.2-2.9,12.3-18.3,15-22,7.5-10.3,15.3-17.2,26.5-23.4ZM181.7,262.6c-4.2-4.4-19.8-21.5-21-26-3.2-11.2,8.8-20.2,19.1-13.6,9.9,6.4,20.1,23.4,30.3,31.2,1.3.9,2.5,1.6,4.1,1.4l-13.5,25c-6.4-6-12.9-11.7-19-18ZM227.5,321.7c-.6.5-1.6.7-2.4.5-1.4-.4-20.8-18.3-21.4-19.6-1.8-4,3.1-9.6,4.5-13,16.7-40,41.9-75.8,73-106h0c65-63,163.1-105.9,253.6-114.9,4.4-.4,17.1-2.4,19.9-.1.7.6,4.2,6.2,5.3,7.7,2,2.7,16,23.1,15.2,24.3-11,1.7-22.2,2.5-33.2,4.3-124.8,19.9-241.8,81.7-303.9,195-1.7,3.3-9.5,21.1-10.5,21.8ZM285.1,395.2c-6.8,8.6-13.9,16.9-20.2,25.8-8.9,12.6-36.4,53.8-39.3,66.7-1.3,5.9-1.3,12.9-3.5,19-9.4-1.2-19-3.5-28.5-4-56.9-3-96.7,35.8-114.2,86.7-14,40.7-10.4,94.5,31.3,117.2,1,.5,5,2-1,2s-13.2.5-19,0h0C-4.1,699.9-2.1,563,26.9,498c30.7-68.6,105.7-104,177.7-111.3,22.3-2.2,58-.8,79.1,6.9,1.2.4,1.7-.5,1.4,1.6ZM297.1,357c-12.8,11.8-22.1-6.7-29.4-14.4-8.4-8.9-17.5-18-27.4-25.1h0c-.8-1.1,10.2-21.4,12.4-23.9,15,12.4,30.8,25.9,42.5,41.5,5.1,6.9,9.9,14.6,1.9,21.9ZM380.5,1133.2c-2,4.7-13.6,8.4-18.3,14.8-5,6.8-5.1,21.2-17.3,13.3-1.9-1.3-4.5-3.8-4.4-6.2.1-1.6,4.8-14.2,5.9-16,3.7-5.8,14.7-14.4,21.6-15.4h0c5.1-.7,14.5,4.8,12.5,9.5ZM440,1146.2c-17-23.9-33.3-39.8-65.2-36.6-32.5,3.3-51.8,31-50.6,62.4.1,2,2.7,6.7-.5,6.5-6.3-.4-14.2-2.2-20.5-3.5-55.9-11.2-156-47.8-189.8-95.2-27.4-38.5-37.7-99.2-35.2-145.8,2-37.3,18.3-103.2,41.1-132.9,50.2-65.5,144.3-44.6,181.1-128.8,10-23,10.6-43.6,3.8-67.7,14.4-.9,28.1-5.5,42-9h0c26.9,67.5,77.5,128.5,141.8,163.2.2,2.4,1.1,7.9-1.5,8.7-28.2,3.4-58.2,6.7-85.6,14.4-37.3,10.4-63.8,34.6-76.8,71.2-1.2,3.3-4.9,18.7-5.5,19.5-.7,1-8.9,1.7-11.5,2.5-4.6,1.5-8.2,4.9-12.1,6.9-6,3-7.7-.3-11.1,8.9-3.2,8.6-.3,12.3-1,18.9-.6,5.3-10.7,21.9-13.3,28.8-12.8,33.4-15.3,61.2,4.7,92.3,13.1,20.4,28.8,10.2,45.5,17.5,12.4,5.4,15.7,10.2,31.5,7.9,5.9-.8,10.3-5.1,16.2-5.7,10.6-1.2,19.3,5.2,30,0,8-3.9,13.6-10.7,17.3-18.7,1-2,3-9.7,3.4-10.1.6-.6,3.9-.8,6.3-3.2,24.5-24.1,17.2-61.7,1.3-88.3-8.5-14.3-17.8-13.4-25.7-22.3-2.3-2.6-2.6-6.4-5.6-9.4-5.4-5.5-16-9.1-22.5-13.5-2.2-2.3.3-8.1,1.2-10.8,11.4-34.6,44.5-48.8,78.3-52.7,4.9-.5,13.4-1.6,18-1,1.2.2,2-.4,1.5,1.5-.6,1.8-4.3,7.5-5.6,9.5-7.5,11.4-19,21.2-23.4,34.5-6.5,19.9-1,42.5,13.5,57.5,4.3,4.5,14,9.6,17,13,1.1,1.3,10.2,21.7,11.8,25.3,1.4,3.1-.5,4.6,4.2,5.7l14.5,18.3c-28.4,29.2-39.8,72.2-27.9,111.6-5.1,1.8-10.8,2-16,3.5-25.3,7.3-15.9,11.3-5.6,27.6,5.4,8.5,11.2,17.1,15.6,25.9l-21.3,4.1c-.8-.2-6.6-10.6-7.9-12.4ZM483.2,1143.2c.6,3.9-3.8,8.1-6.9,4.8-1.7-1.9-11.9-18-12.1-19.9-.3-2.2.9-1.7,2.5-1.5,1.8,0,8.4,1.3,9.3,2.2h0c.2,4.7,6.7,10.8,7.2,14.4ZM482.5,1168.5c-4.7,2-10.9,5.3-13.6-1.2-1.9-4.6,6.2-5.5,9.3-7.2,3.9-2.2,11.7-9.2,15.7-5.3h0c5.6,5.6-7.4,12-11.4,13.7ZM489.1,1121.5c.3-2.9,2.4-4.1,2-7.4-.3-2.7-4.6-10.7-5.7-14.4-10.4-34.1-5.5-76.7,20.2-103.2,2-2,4-5.1,7.3-3.7h0c.2.2.4,1.3,1.1,1.7,8,4,16.1,7.8,24.2,11.6-26.5,30.1-38.5,71.5-20.4,109.3l5.4,7.1-34-1ZM616.6,1031.5c-9,24.1-31,58.9-52,74-9.5,6.9-10.2,1.9-17.5-2.4-8.3-4.8-17.4-8.2-26.7-10.8h-.2c-5.4-20.5.6-43,11-61.1,4.7-8.1,11.3-14.6,16-22.6,6.5,1,13,3,19.5,3.8,10.1,1.2,20.8,1.2,30.9,0,7.3-.8,19-6.6,23,2,1.2,2.6-2.8,13.7-4,17ZM663.5,1007.6c20.1,26.5,25.8,58.6,23.6,91.4-.2,3.2-1.5,14.2-2.5,16.5s-8.3,7.6-11,8c-3.1.5-18.2-1.2-21.1-2.3h-.2c-.2-.2-2.5-2.4-2.3-3.1,8.2-31.5,6.7-67.7-11.6-95.5-1.9-2.9-12.2-14.3-12.4-15.6-.3-1.9.4-1.2,1.3-1.7,5.6,0,20.4-10.2,24.2-9.8,2.4.2,10.2,9.7,12,12.1ZM661,909.3c-.5.5-7.7,2.7-6.8-.2-.8-19.7,1.2-40.4,0-60-.7-11.6-4.8-25-5-36,0-2-.6-2.9,2-2.5h0c5.4,10.5,8.3,21.9,9.9,33.6,1,7.3,1.9,16.4,2.2,23.8.2,5.8.3,38.7-2.3,41.3ZM680.3,871.4c-1.8-16.5-6.7-32.3-12.2-47.8l25.3,16.2c37.4,20.6,77.7,27.9,119.6,16.9h0s10.1,29.9,10.1,29.9c-47.6,14-98.4,4.6-142.8-15.2ZM812.1,899.1c.3-1.4,10-3.1,12-3.5-.2,13.5-6.5,17.9-12,3.5ZM839.3,917.2c-5.7,8.8-9.5,3.9-17.2,1.3h0c-.5-2.4.4-1.6,1.3-2.2,2-1.4,3.2-1.3,5.1-3.8,14.7-19.6-10.2-72-26-87-.8-.7-4.4-1.3-1.9-3,2-1.3,6.6-.9,8.4.6,1.2,1,1.2,3.2,2.5,4.5s4,1.4,5.5,2.5c5.7,4.2,19,26.3,21.6,33.4,4.7,12.9,8.1,42,.7,53.7ZM1022.2,843.3c-21.6,13.2-51,21.5-74.3,31.7-3.7,2.1-7.3,9.6-2.7,12.2s26.9,4.5,34,6c4.3.9,24.5,4.1,15.9,12-4.5,4.1-25.6,6.5-32.6,7.4-8.9,1.1-18,1.2-26.9,2.1-28.5,3-57.1,8.2-85.5,1,8.6-32.3-1.7-59.3-20.6-84.9-3-4-9.2-7.5-8-13.1,3.2-14.5,16.7-27.5,29.9-33.2,23.3-10,41.5-13,58.7-34.3,2.5-3.1,10.7-18.4,12-19,5.4-2.7,13.1,5.3,15.2,9.8,6.8,14.7-4.4,35.2-14.2,46.2-9,10-8.8,6-11.8,21.2-2.5,13-.6,18.1-11.3,28.6-2.8,2.7-12.5,8.4-13.4,10.6-2.4,5.8,2.3,9.8,7.2,6.6v.4c.8-.4,1.2-1.8,2.1-2.5,12-8.4,19.4-14.8,23.3-29.7,1-4.1,1.2-11,2.2-13.8,1-3.1,31.5-13.8,36.6-15.4,12.3-4,46.1-14,57.6-12.2,3.3.5,8.8,3.7,8.6,7.3-.4,6.8-21,18.8-27,22.1-10.8,6-32.1,13.2-40.4,19.6-4.6,3.6-7.1,12.5.8,11.8,4.3-.4,13.9-4.6,19.4-5.7,12.9-2.7,35-6.4,47.7-5.3,2.6.2,6.5.7,8.5,2.5.4,2.2-8.9,8.7-11,10Z"/>
  <path class="st3" d="M346.2,595.6c27,67.5,77.5,128.5,141.8,163.1.2,2.3,1.1,7.9-1.5,8.7-28.2,3.4-58.2,6.8-85.6,14.4-37.3,10.4-63.8,34.6-76.8,71.2-1.2,3.3-4.8,18.7-5.5,19.5-.7,1-8.9,1.7-11.5,2.5-4.6,1.5-8.2,4.9-12.1,6.9-6,3-7.7-.3-11.1,8.9-3.2,8.6-.3,12.3-1,18.9-.6,5.3-10.7,21.9-13.3,28.8-12.8,33.4-15.3,61.2,4.7,92.3,13.1,20.4,28.8,10.2,45.5,17.5,12.4,5.5,15.8,10.2,31.5,7.9,6-.9,10.3-5.1,16.2-5.7,10.7-1.1,19.4,5.2,30,0,8.1-3.9,13.6-10.7,17.3-18.7.9-2,3-9.8,3.4-10.1.6-.6,3.9-.8,6.3-3.2,24.4-24.2,17.2-61.7,1.3-88.3-8.5-14.3-17.8-13.3-25.7-22.3-2.3-2.6-2.6-6.4-5.6-9.4-5.4-5.5-16-9.1-22.5-13.5-2.1-2.3.4-8.1,1.2-10.8,11.4-34.6,44.5-48.8,78.3-52.7,4.9-.6,13.4-1.6,18-1,1.2.2,2-.4,1.5,1.5-.5,1.8-4.3,7.5-5.6,9.5-7.5,11.5-19.1,21.2-23.4,34.5-6.5,19.9-1,42.5,13.5,57.5,4.3,4.5,14,9.6,17,13,1.1,1.2,10.1,21.7,11.8,25.3,1.4,3.1-.5,4.6,4.2,5.7l14.5,18.3c-28.5,29.2-39.8,72.2-27.9,111.6-5.2,1.8-10.8,2-16,3.5-25.3,7.2-15.9,11.3-5.6,27.6,5.3,8.5,11.2,17.1,15.6,25.9l-21.3,4.1c-.8-.2-6.6-10.5-7.9-12.4-17-23.8-33.3-39.8-65.2-36.6-32.5,3.3-51.8,30.9-50.6,62.4,0,2,2.6,6.7-.5,6.5-6.3-.4-14.2-2.2-20.5-3.5-55.8-11.2-156-47.8-189.8-95.2-27.4-38.6-37.8-99.3-35.2-145.8,2-37.3,18.3-103.2,41.1-132.9,50.2-65.6,144.3-44.7,181.1-128.8,10-23,10.6-43.6,3.8-67.7,14.4-.9,28.1-5.5,42-9h.1Z"/>
  <path class="st1" d="M403.2,664.6c.4.5,3.4,2.6,4,2,1.9-10.9,6.5-22,11.8-31.7,8.2-14.8,24.6-33.4,37.7-44.3,3.7-3.1,18.6-14.9,22.1-15.9,1.9-.5,1.1.3,1.6,1.2,17,30.5,37,56.7,71.6,68.4,19.5,6.6,50.1,6.2,70.7,4.3,22.2-2,40.1-21.4,50-40,3.2-6,5.2-14,9-19,6.2-8.2,29.4-27.5,38.8-31.2,3-1.2,6.5-2.8,9.7-1.3-9.7,12.5-18.8,22-19,39,0,1.3,1.2,10.1,1.5,10.5.8,1.1,3.2.7,4.5,1.5,1.4.8,2.3,3.9,3.7,5.3,5.4,5.6,15.2,7,21.6,10.1,1.1.5,1.1,2.4,2.4,2.8,4.4,1.5,14.9-2.8,19.9-2.9,2.7,0,5.2,1.5,7.9,1,2-.3,3.1-2.5,6-2,1.5.2,14,11.5,17.7,13.5,3.1,1.6,12.6,3.2,12.8,7,.2,4.9-6,19.6-8.4,24.6-19.2,40.2-57.5,81.5-98.5,99.4-111.8,48.9-229.3-12.3-301-98.5l2-4h0v.2ZM489.5,645.9c-5.4,5.3-19.2,28.9-15.9,35.7,1,2,3.8,2.4,5.8,1.8,4.1-1.2,8.3-26.8,14.1-25.8.8.2,10.2,9.3,12.9,11.2,33,23,89.6,30.3,129.2,31.8,12,.5,30.5,1.2,42,0,6.4-.7,10.7-5.1,4-9-42.1.4-85,0-125.9-11.1-13.1-3.5-31.2-9.9-42.3-17.7-1.7-1.2-13-11-13.2-11.9-.9-5,17.4-7.5,19.5-9.3s2.3-7.1-.2-7.9c-8-2.7-24.2,6.6-30,12.2h0Z"/>
  <path class="st4" d="M341.2,542.6l-6-44.5c-5.4-68.5,98.4-147.6,148.6-183.3,18.3-13,44-31.2,66.8-33.2,4.8-.4,10.3.6,14.9,0,5.7-.9,12.2-5.2,19.1-5.9,21-2.1,51.8.1,72.8,3.2,43.3,6.3,86.6,22.6,120.6,50.3-6.4,2.9-13.2,4.5-19.7,7.3-29.2,12.6-49.5,36.2-64.2,63.8-1,1.9-2.8,8-3.2,8.4-1.7,1.7-1.7-.6-2.1-1.4-26.8-52.5-73.7-95-137.1-73.3-64.6,22.2-88.1,93.6-90.8,155.7l-120,53h.3Z"/>
  <path class="st4" d="M798.4,265.4c.7.7,2.3,1.2,3.3,1.2,4.3,0,18.5-7.4,23.1-9.8,29.3-15.4,53.8-36.8,70.5-65.5,2-3.4,6.9-15.6,8.9-17.1,1.8-1.4,8.9-2.1,11.6-2.4,29.2-3.6,72.5,4.4,89.8,30.9,3.4,5.2-1.5,6.1-5.9,8-31.3,13-66.8,11.6-98.9,18.1-24,4.8-43.8,38.9-63.2,53.7-17.9,13.6-38.5,23.2-59.1,32-1.8.2-18.8-11.9-22.6-14-30.8-17.5-70.1-28.4-105.3-32.7-14-1.7-68.3-3.6-79.1.7-1.6.6-7.5,5.1-8.3,4.2-.2-1.7,0-3.1.8-4.7,1.2-3,12.3-18.3,15-22,7.6-10.4,15.3-17.2,26.5-23.4,48.6-27.1,105-11.6,157.6-28.3,8.2-2.6,18.2-9.6,26-12,2.3-.7,5.3,0,7-1,.9-.5,1.9-3.2,3.5-4.5,27.5-22,43.7-32.2,58-67,3.9-9.6,6.2-26.2,10.3-33.7s9.5-8,15.7-2.3,20.4,31.5,21.4,39.6c1.7,12.8-2.3,38.4-7.4,50.4-3,7.1-5.5,14.6-9.3,21.7-18.6,34.5-52.7,57.8-88.1,72.9-2.2,1.5-4,5.1-1.8,7.2h0v-.2Z"/>
  <path class="st2" d="M90.7,708.6C-4,699.8-2,562.9,27.1,497.9c30.7-68.6,105.7-104,177.7-111.3,22.3-2.3,58-.8,79.1,6.9,1.1.4,1.7-.5,1.4,1.6-6.8,8.6-13.9,16.9-20.2,25.8-8.9,12.6-36.4,53.8-39.3,66.7-1.3,5.9-1.2,12.9-3.5,19-9.4-1.1-19-3.5-28.5-4-56.9-3-96.7,35.8-114.2,86.7-14,40.8-10.4,94.6,31.3,117.2,1,.5-.9,2-1,2-6,0-13.2.5-19,0h-.2Z"/>
  <path class="st1" d="M893.8,854.2c.6-.4,1-1.8,2-2.5,12-8.5,19.4-14.8,23.3-29.7,1-4,1.3-11,2.2-13.8,1.1-3,31.5-13.7,36.6-15.4,12.4-4,46.1-14,57.6-12.2,3.2.5,8.8,3.7,8.6,7.3-.4,6.8-21,18.8-27,22.1-10.8,6-32.1,13.2-40.4,19.6-4.6,3.6-7.1,12.5.8,11.8,4.2-.4,13.9-4.5,19.4-5.7,12.8-2.7,35-6.4,47.7-5.3,2.6.2,6.6.7,8.5,2.5.5,2.3-8.9,8.8-11,10-21.6,13.2-51,21.5-74.3,31.7-3.6,2.1-7.1,9.7-2.7,12.2s26.8,4.5,34,6c4.3.9,24.6,4,15.9,12-4.5,4.1-25.6,6.5-32.6,7.4-8.9,1.1-18,1.2-26.9,2.1-28.5,3-57.1,8.2-85.5,1,8.7-32.3-1.6-59.3-20.6-84.9-3-4-9.2-7.5-8-13.1,3.2-14.5,16.7-27.5,29.9-33.2,23.2-10,41.5-13,58.7-34.3,2.5-3.1,10.7-18.3,12-19,5.4-2.7,13.1,5.3,15.2,9.8,6.8,14.7-4.3,35.2-14.2,46.2-8.9,10-8.8,6.1-11.8,21.2-2.6,13-.7,18.2-11.3,28.6-2.7,2.7-12.4,8.4-13.4,10.6-2.5,5.8,2.3,9.9,7.2,6.6h0v.4Z"/>
  <path class="st1" d="M296.9,920c24,9.9,68,12.6,94.8,8.5,7.8-1.2,7.7-7.6,9.1-7.9,2.2-.5,12.7,8.3,14.5,10.5,6.7,8.4,17.3,37.3,16.9,47.8-.3,7.8-4.3,17.3-8.1,24l-4.8,6.7c-.8-6.8-1.1-13.6-2.2-20.3-.7-4.2-4.1-25-6.2-26.8-2.3-1.8-5.6-1.4-6.9,1.4-1.5,3.1,3.4,20.4,4.1,25.4,2.5,17.3,5.5,42.9-13.2,52.6-8.9,4.6-16.5-1.4-25.1-1.2-8.4.2-15.5,7.2-25,7.1-13.3-.2-17.3-7.9-27.5-10.6-11.3-3-23.6,2.1-32.6-7.4-5-5.3-16.6-32.3-16.5-39.5.1-13.7,5.5-36.6,10.5-49.5,1.1-2.8,9.5-22.2,10.6-22.9,2.1-1.3,5.7,1.6,7.5,2.3h0v-.2ZM304.4,968.8c-1.1,1.1-1.1,3.7-1.3,5.2-.6,7.4-.9,25,0,32.1.9,6.5,8.1,6.9,9,2s.8-30.6,0-36c-.6-4.4-4.9-6.2-7.8-3.2h0ZM376.4,1014.3c4.8,4.8,8.1-1.7,8.6-6.4.7-5.5,1-25.9,0-30.8-1-5.5-8.9-4.3-8.9,1,1.5,6.3-3.3,32.7.1,36.2h.2ZM348,1021.3c1.1-1.1,1.1-3.7,1.3-5.2.5-5.7.9-23,0-28-.7-4-5.9-6.3-8.4-2.5-2.3,3.5-2.3,30.4-.3,34.2,1.6,3,5.2,3.8,7.5,1.5h-.1Z"/>
  <path class="st1" d="M596.2,436.6c17.9-1.4,35.3-1.7,52.5,4,6.8,2.2,27.6,12.1,32,17,12,13.2,9.5,43.9,7.3,60.4-6,44.5-34.6,98.1-80,111.9-9.6,2.9-22,6.5-29.8-1.8,9.8-15.8,14.6-36,17.7-54.3,7.6-45,6.9-92.2.3-137.2h0Z"/>
  <path class="st4" d="M281.2,183.6c65-63,163.1-105.8,253.6-114.9,4.4-.4,17.1-2.4,19.9,0,.7.6,4.2,6.2,5.3,7.7,2,2.7,16,23.1,15.2,24.3-11,1.7-22.2,2.6-33.2,4.3-124.8,19.9-241.8,81.7-303.9,195-1.8,3.2-9.5,21.1-10.5,21.8-.6.4-1.6.6-2.4.5-1.4-.4-20.8-18.2-21.4-19.6-1.8-3.9,3.1-9.6,4.5-13,4.8,3.1,5.9,8.7,11.5,3,9.9-9.9,15.9-22.7,24.1-33.9,12.3-16.9,31-36.7,41.2-53.8,4.8-8,4.2-15.9-3.8-21.3h-.1Z"/>
  <path class="st1" d="M477.2,487.6c-.8-52.7,27.8-122.6,82.2-139.3,65.8-20.2,116.8,44,126.8,102.3-24.2-24.7-58.7-25.5-91-21.4-4.7-17.4-8.2-39-19.5-53.5-23.4-29.8-40.2,20.4-44.7,38.1-1.2,4.6-8.1,37.4-6.7,38.8.2.1,2.6-.1,3.9.6,2.1,1.1,4.8,5,7.4,4.4.7-.2,8.7-7.7,10.8-9.3,2.8-2,19.3-11.7,21.4-11.6.6,0,2,2.2,1.5,3-8.3,3.7-17.7,9-24.5,15-5.4,4.8-8.8,10.4-13.4,15.5-2.1,2.4-5.4,3.8-7,5.9s-4,11.5-5.5,11.5h-41.7Z"/>
  <path class="st4" d="M401.2,668.6c-.8-1-2.7-2-4-3.5-25.5-32.1-44.7-71.1-52.9-111.4l111.9-42.6,6-.4c1,7.3,2,14.7,3.5,21.9,2.5,11.3,6.5,22.1,9.4,33.3-25,16.3-48.3,36.6-63.1,63-2.8,5-12.1,23.5-11.8,28.1,0,.5,2.7,7.2,3,7.6l-2,4h0Z"/>
  <path class="st1" d="M742.2,474.6c-1.2,2.8-4,14.4-5.6,14.9s-5.7-1.6-8-1.8c-7.8-.6-14.8.2-22.4,1.9,0-7.8-.2-15.8-1-23.5-1-9.1-6.6-26.7-6-34,.3-4.9,5.8-17,8.2-21.9,10-20.9,26.9-42.2,47.2-53.8,7.2-4.1,28.8-14.1,36.2-9.9,1.1.6,9.9,9.7,10.9,11.1,2.2,3.1,5.9,9,7.9,12.2,11.1,18.1,18.6,39.5,20.7,60.7-9.5-1.1-18.8,2.5-28.1,1.5-4.9-15.7-8.2-35.3-18.5-48.5-19.8-25.1-35.1,7.6-40.9,25-5.6,16.8-8.8,35.3-10.5,53,5.7-2.6,8.7,4.2,13.5,6,7.8-13.6,26-28.1,41.5-31.5.8-.2,7.7-1.2,5,1.5-.6.7-14,5.8-17,7.5-12.8,7.4-16.7,15.5-26,25.5-6.2-1.7-5.1-.6-7,4h-.1Z"/>
  <path class="st4" d="M360.2,909.6l-35-7c-.7-40.3,17.5-82.7,54.1-102.3,17.9-9.6,41.6-13.8,61.7-17.3,21.1-3.7,42.8-7.3,64.2-5.8l-17.2,34.3c-4,2.2-7.8-2.9-10.4-2.8-1.7,0-3.4,2.5-6,2.9-13.5,2.2-26.6.9-41.5,4.5-33.2,8.1-70,36.7-70,74v19.5h.1Z"/>
  <path class="st4" d="M520.4,1092.3c-5.4-20.5.5-43,11-61.1,4.6-8,11.3-14.6,16-22.6,6.5.9,12.9,2.9,19.5,3.8,10.1,1.2,20.8,1.2,30.9,0,7.3-.8,19-6.6,23,2,1.2,2.6-2.8,13.7-4,16.9-9,24.1-31,58.9-52,74-9.6,6.9-10.2,1.9-17.5-2.4-8.3-4.8-17.4-8.2-26.7-10.8h-.2Z"/>
  <path class="st1" d="M633.2,815.6c5.8,23.6,7.3,45.1,6,69.5-.3,5.5-1.7,22.3-3.3,26.7s-3.2,3.2-5.3,3.7c-11.3,2.3-27.3,1.5-38.9,1-3.3,0-15.5,1.3-16.4-1.6,1.3-32.8,2.1-66.2-5.1-98.3,5.8-.5,10.4-4.2,16-5.5,15.6-3.8,32.2-.7,47,4.5h0Z"/>
  <path class="st4" d="M813,856.7l10.1,29.9c-47.6,14-98.4,4.6-142.8-15.2-1.8-16.5-6.7-32.3-12.2-47.8l25.3,16.2c37.4,20.6,77.6,27.9,119.6,16.9h0Z"/>
  <path class="st4" d="M652.5,1121.2c-.2,0-2.5-2.3-2.3-3,8.2-31.5,6.8-67.8-11.6-95.5-1.9-2.9-12.2-14.3-12.4-15.6-.3-2,.4-1.3,1.3-1.7,5.5,0,20.4-10.2,24.2-9.8,2.4.2,10.1,9.7,12,12.1,20.1,26.5,25.7,58.6,23.6,91.4-.2,3.1-1.5,14.2-2.5,16.5s-8.3,7.5-11,8c-3.1.5-18.2-1.2-21.1-2.3h-.2Z"/>
  <path class="st4" d="M512.9,992.8c.2,0,.3,1.2,1.1,1.6,8,4,16.1,7.8,24.2,11.6-26.5,30.2-38.4,71.6-20.4,109.3l5.4,7.1-34-1c.3-2.9,2.3-4.1,2-7.4-.3-2.7-4.6-10.7-5.7-14.4-10.4-34.2-5.5-76.7,20.2-103.2,2-2,3.9-5.1,7.3-3.7h0Z"/>
  <path class="st4" d="M524.2,877.6c-3.9,8-7.6,17.2-9,26-.6-.3-4.1-2.1-4.4-2.2-2.8-1-8.7-1.3-10.6-2.4-1.7-1-3-6-5-7-4.8-2.2-6.2.7-10.8-6.2-11.8-17.5,4.1-50,11.3-67.3,3.2-7.6,6.7-19.7,11.6-26.3,3.7-4.9,8,8.1,9.1,11.6,7.2,21.8,7.8,50.8,7.7,73.8h0Z"/>
  <path class="st1" d="M520.2,509.6c1.9,37.2,5.4,75.1,19,110-.7.7-7.4-4.2-8.5-5-31.5-23.6-48.8-67.8-52.5-106l42,1h0Z"/>
  <path class="st1" d="M208.2,289.6c16.7-39.9,41.9-75.8,73-106,8.1,5.4,8.6,13.3,3.8,21.3-10.2,17.1-29,36.9-41.2,53.8-8.2,11.2-14.1,24-24.1,33.9-5.6,5.6-6.7,0-11.5-3h0Z"/>
  <path class="st1" d="M240.3,317.5c-.8-1.1,10.2-21.3,12.4-23.9,15,12.4,30.8,25.9,42.5,41.5,5.2,6.9,9.9,14.5,1.9,21.9-12.8,11.8-22.1-6.7-29.4-14.4-8.4-8.9-17.5-18-27.4-25.1h0Z"/>
  <path class="st1" d="M832.1,438.6c1.9,22.7,2.5,45.3,0,68-6.6-5.2-15.4-5-23-7.6l-5-55.9c0-1.3.5-1.9,1.7-2.3,1-.4,11-2.2,11.8-2.2h14.5Z"/>
  <path class="st1" d="M179.8,223c9.9,6.4,20.1,23.3,30.3,31.2,1.3,1,2.4,1.6,4.1,1.4l-13.5,25c-6.4-6-13-11.6-19-18-4.2-4.4-19.8-21.5-21-26-3.1-11.2,8.9-20.3,19.1-13.6h0Z"/>
  <path class="st1" d="M553.2,913.6c-10.8,0-10.4-2.8-11-12.5-1.9-28,3-57.5-3.6-85.4-3.3-14.1-12-29.5-20.3-41.1,1.2-.9,11.4,2.8,12.5,4s1.1,4.3,2,6c10.6,20.3,20.3,41.1,21.5,64.5,1.1,21.4-.6,43.2-1,64.5h-.1Z"/>
  <path class="st1" d="M488.4,920.8c3.4-3.4,11.8.7,14.2,3.8,3.7,4.7,3.4,9.9,5.3,14.7,5.6,14,23,24.4,26.5,35.6,1.6,5.2-2,10.3-7.7,9.7-15.1-1.5-34.3-31.5-38.1-45-1.2-4.5-3.8-15.2-.3-18.8h0Z"/>
  <path class="st1" d="M729.2,502.6l1,44c-9.9-.2-19,4.9-26.5,11-10.6-14.9,3-33.6,1.6-50.3,1-3.2,20.1-5.4,23.9-4.6h0Z"/>
  <path class="st4" d="M570.2,816.6c-2.2-9.9-6.5-17.9-8.8-26.7-.2-.8-.7-2.2.3-2.3,21.8,5,44,7.8,66.4,8.1,2.2,6.5,3.5,13.2,5.1,19.9-14.8-5.2-31.5-8.3-47-4.5-5.5,1.4-10.2,5-16,5.5h0Z"/>
  <path class="st1" d="M822.1,918.5c-.5-2.4.4-1.6,1.3-2.2,2-1.4,3.3-1.3,5.1-3.8,14.7-19.6-10.2-72-26-87-.8-.8-4.4-1.3-1.9-3,2-1.3,6.6-1,8.4.6,1.2,1,1.1,3.2,2.5,4.5,1.5,1.5,4,1.4,5.5,2.5,5.7,4.2,18.9,26.3,21.6,33.4,4.7,12.8,8.1,42,.7,53.7-5.6,8.8-9.5,3.9-17.2,1.3h0Z"/>
  <path class="st1" d="M803.9,520.8c3.6,3.5-1.8,11.7-4,15.1-7.4,11.5-22,25.9-37.1,22.5-.6,0-5.4-2.7-5.6-3-2.2-3.8,14.3-21.4,18-24.3,4.6-3.7,23.8-15.2,28.7-10.3h0Z"/>
  <path class="st1" d="M765.9,1135.8c11-1.6,21.2,5.6,9.3,12.3-6.1,3.4-13.7,5.3-20,9-5.8,3.4-15,14.4-20.6,14.3-3.1,0-5.2-2.5-5.5-5.4-1.6-15.4,24.1-28.4,36.8-30.3h0Z"/>
  <path class="st1" d="M368,1123.7c5.2-.7,14.5,4.9,12.5,9.5s-13.5,8.4-18.3,14.8c-5,6.8-5.1,21.3-17.3,13.3-1.9-1.2-4.5-3.7-4.4-6.2,0-1.6,4.8-14.2,5.9-16,3.7-5.8,14.7-14.4,21.6-15.4h0Z"/>
  <path class="st1" d="M651.2,810.6c5.3,10.5,8.2,21.9,9.9,33.6,1,7.3,1.9,16.5,2.2,23.8.2,5.8.3,38.7-2.3,41.3s-7.7,2.7-6.8-.2c-.8-19.7,1.2-40.4,0-60-.7-11.6-4.8-25-5-36,0-2-.6-2.9,2-2.5h0Z"/>
  <path class="st1" d="M542.2,464.6l18.5,13,1.5,2.5c-4.3,2.6-33.3,22.1-35.5,21.5-1.4-.4-1.4-1.8-1.1-3,.4-1.8,4.1-10.5,5.1-12.9,3.2-7.4,7.7-14,11.5-21h0Z"/>
  <path class="st1" d="M376.2,919.6v1c-20.2,1.2-38.1.8-58-3.5-10.8-2.3-33.6-5.9-25.5-21.5,2.2,2.2,4.1,4.5,6.8,6.2,13.7,8.9,60.5,19.1,76.7,17.8h0Z"/>
  <path class="st1" d="M461.2,489.6c0,1.4.6,3.2-.6,4.1-37,15.8-75.1,29.1-109.4,50.4-1.7.8-9.5-.2-10-1.6l120-53h0Z"/>
  <path class="st1" d="M631.4,1203.2c-4.4-4,1.2-22,7.5-23.6,3.2-.8,6.3,2.1,6.3,5.3s-4.3,14.1-4.9,15.2c-1.7,3.5-5.6,6.1-9,3h.1Z"/>
  <path class="st1" d="M809.1,632.6c-.8.9-10.8-5.2-12.3-6.2-1.4-.9-11.3-8.2-9.7-9.8,4.1,1.6,11.7-5.7,14-4.6,6.1,3.1,9.4,14.1,8,20.5h0Z"/>
  <path class="st1" d="M493.9,1154.8c5.6,5.5-7.5,11.9-11.4,13.6-4.7,2-10.9,5.3-13.6-1.2-1.9-4.6,6.2-5.5,9.3-7.2,3.9-2.2,11.8-9.2,15.7-5.3h0Z"/>
  <path class="st1" d="M476,1128.8c.3,4.7,6.7,10.8,7.2,14.3.6,3.9-3.7,8.1-6.9,4.8-1.8-1.9-11.9-18-12.1-19.9-.3-2.2.9-1.6,2.5-1.5,1.8.2,8.4,1.3,9.3,2.2h0Z"/>
  <path class="st1" d="M369.2,894.6c.8-.8,15.4,7.1,16.9,8.5,1.6,1.6,3.9,4.4.8,5.7-5,2.2-12.4,1.6-17.8,1.7v-16h.1Z"/>
  <path class="st1" d="M807.1,848.5c-.5.6-13.7,2.4-16,3-.3-6.7.7-13.4,2-20,3.1-2.1,16.2,14.3,14,17h0Z"/>
  <path class="st1" d="M317.2,882.6l-1,16c-1.9,1.8-14.8-4.5-15.9-7.6-.6-3.5,13.4-9.5,16.9-8.4Z"/>
  <path class="st1" d="M633.2,1154.5c.6-4.5-6.3-23.8-4.6-26.1,1-1.4,5.1-1.3,6.6-.4,4.1,2.5,5.4,24.5-2,26.5Z"/>
  <path class="st1" d="M524.2,877.6c0,10-.3,20-1,30-1.3,1.4-6.6-3.3-8-4,1.4-8.8,5.1-18,9-26h0Z"/>
  <path class="st1" d="M763.1,482.6l-17,8,6.5-17c2,.8,11.8,7.1,10.5,9h0Z"/>
  <path class="st1" d="M824.1,895.6c-.2,13.6-6.5,18-12,3.5.3-1.4,10-3.1,12-3.5Z"/>
  <path class="st1" d="M815.1,599.6c.4.5-2,8.6-2.5,10-.4,1-.2,2.7-1.9,2-.8-.3-4.7-4.3-4.5-5.4,0-.7,8.3-7.3,9-6.6h0Z"/>
  <path class="st0" d="M376.2,919.6c1.3,0,14.8-4.1,15-2.5.8,5.6-11,3.2-15,3.5v-1Z"/>
  <path class="st0" d="M749.2,470.6c-.3.3,0,1.8-1.6,2.9-1.5,1-3.6,1.2-5.4,1.1,1.9-4.6.8-5.7,7-4Z"/>
  <path class="st1" d="M642.2,630.6c1.6,1.6-7.3,6.6-9,6l9-6Z"/>
  <path class="st1" d="M643.2,630.6c-1.5-1.5,2.7-3.2,3.5-4,.5,1.5-2.3,5.1-3.5,4Z"/>
  <path class="st1" d="M648.7,625.6c.7.3.7.7,0,1v-1Z"/>
  <path d="M489.5,645.9c5.8-5.6,22-14.9,30-12.2,2.5.8,2.3,6.2.2,7.9s-20.4,4.2-19.5,9.3c.2.9,11.5,10.7,13.2,11.9,11.1,7.8,29.2,14.2,42.3,17.7,40.9,11,83.8,11.4,125.9,11.1,6.7,3.9,2.4,8.3-4,9-11.6,1.2-30,.5-42,0-39.6-1.5-96.2-8.8-129.2-31.8-2.7-1.9-12.1-11-12.9-11.2-5.8-1-10,24.5-14.1,25.8-2,.6-4.8.2-5.8-1.8-3.4-6.7,10.4-30.4,15.9-35.7h0Z"/>
  <path d="M304.4,968.8c3-3,7.2-1.2,7.8,3.2.7,5.4.9,31.1,0,36s-8.2,4.6-9-2c-.9-7.1-.6-24.7,0-32.1.1-1.6.2-4.1,1.3-5.2h0Z"/>
  <path d="M376.4,1014.3c-3.5-3.5,1.3-29.9-.1-36.2,0-5.3,7.8-6.5,8.9-1,1,5,.6,25.3,0,30.8-.6,4.7-3.8,11.2-8.6,6.4h-.2Z"/>
  <path d="M348,1021.3c-2.3,2.3-6,1.5-7.5-1.5-2-3.8-2-30.8.3-34.2,2.6-3.8,7.7-1.5,8.4,2.5.9,5,.5,22.4,0,28-.1,1.6-.2,4.1-1.3,5.2h.1Z"/>
  <path class="st4" d="M561.1,278.5l-6,3s-6,2.2,0,2.9,20.2.9,24.7,0,16-3.7,18.6-4.5,13.7-4.9,13.7-4.9l21.6-8.4s.4-3.2,0-3.3-33.1-.5-35.8-.5-34.6,8.8-34.6,8.8l-9.9,10.2,2.2.7,6-4.3-.4.2Z"/>
  <path class="st4" d="M574.3,263.9l8.7,2.8s.4,2-3,2.7-11,2.5-11.6,2.3-.6-4.1.5-4.8,5.5-2.9,5.5-2.9Z"/>
  <path class="st4" d="M611.4,274.9s18.1-9.1,53.3-5.3,18-4.7,16-5.6-20.8-5.7-25-6.9-9.4-2.4-13.9-1.8-34.5,12.6-34.5,12.6l4.1,7.1Z"/>
</svg>