<?xml version="1.0" encoding="UTF-8"?>
<svg id="katman_1" xmlns="http://www.w3.org/2000/svg" version="1.1" viewBox="0 0 1043.3 1255.6">
  <!-- Generator: Adobe Illustrator 29.0.0, SVG Export Plug-In . SVG Version: 2.1.0 Build 186)  -->
  <defs>
    <style>
      .st0 {
        fill: #ffe3b3;
      }

      .st1 {
        fill: #000;
      }

      .st2 {
        fill: #000;
      }

      .st3 {
        fill: #fff;
      }
    </style>
  </defs>
  <path class="st2" d="M908.1,163.6c37.1-6.6,78.8,1.9,103.5,32,10.1,12.2,5,17.4-7.8,23.2-30.6,13.9-67.7,12.6-100.1,18.9-18.9,3.7-31.7,24.8-43.6,37.4-18.8,20-47.6,34.4-72.4,45.4-1-.1-.8,1.9-.6,2,.4.5,9,5.7,11,7.5,19.4,17.2,31.2,34.5,40,59,4.8,13.4,7.9,27.3,10.2,41.3,30.3,5.7,58.2,24.4,65.7,55.8,7.9,1.6,24.1-2.3,28.9,6,8.7,15-25.3,11.7-28.4,16.4-.9,9.8-2.1,19.6-3.8,29.2-8.3,47-30.1,117.9-91.6,106.9-20.7,79.3-87.8,137.8-169.1,147.9-.3,1.3.3,1.8.8,2.7,2.7,5.5,24.5,21.7,30.9,26.1,28.9,20.1,63.7,32.7,99.3,31.2,1-1,1.5-22,2.1-25.4.7-4.5,11.7-13.1,15.9-14.1,3.9-.9,13.4.8,14,.5.5-.3,3.6-9.2,4.6-10.9,19.2-34.9,59.4-27.6,83.5-56.5,10.1-12.1,13.5-35,34.3-21.3,24.5,16.1,11.2,48.7-3.3,66.8,19.8-6.2,39.4-13.5,59.8-17.7,12.2-2.5,27.9-7,37.6,3.8,13.1,14.6-6.6,27.8-17.9,34.9-6.1,3.9-13,6.5-18.5,11,10-1.7,41.4-5.9,48,2.8,9.6,12.5-14.9,25.7-23.7,30.1-17.5,8.7-37.2,15.5-55.3,23.2-.3,1.5,1.9,1.2,3,1.5,10.8,2.4,31.1,3,38.5,11.6,6.1,7.2,2.6,16.5-4.5,21.4-10.2,7-44,8.1-57.4,9.6-23.5,2.6-47.2,6.6-71,5-6.1-.4-18.6-4.2-23.1-3.9-2,.1-7,5.5-10.4,6.5-14.8,4-35.5-14.8-37.1-29.4-41,4-81.6-3.3-118.9-20.1-.2,5.5.2,11,0,16.5-1.1,30.9-10.2,62.3-22,91,0,1.2,9.6,11.3,11.4,13.6,14.6,19.2,24.1,45.3,25.6,69.4.8,13.1-.9,26.3-.9,39.4l29.9,10.6c2.8,2.8-.2,12.7,0,16.5.7.8,10.3-6.6,12-7.5,43.6-23.8,96.4-4.3,103.7,47.3,5.6,39.6-9.3,77.7-54.3,77.2-22.5-.2-78.4-4.5-98.2-12.8-2.7-1.1-7.4-5.2-8.8-5.3-3.2-.3-4.3,3.1-6.5,4.5-3.8,2.4-25.7,2-31.5,1.6-8.3-.5-13.1-.8-19-7-15.1-15.9-13.5-38.7-5.7-57.7,4.6-11.2,10.5-12.9,6.9-26.5-1.6-6-1.8-8.5-2.9-14-.9-4.4-4.4-14.5-3.8-18.2,1-6,20.8-12.2,26.1-14.9,4.6-26.8,2.8-57.5-14.6-79.6-11.6,29.9-26.4,57.8-50,80-3.9,3.6-18,13.9-19.8,17.2-.9,1.7-8.6,29.5-8.5,31.1.2,1.9,4.7,9.9,5.7,13.1,7.3,22.1,6.5,46.2-9.6,64.4-3.2,3.7-5.3,4.1-10,5-13.7,2.5-30.8,1.4-44.9,3.1-5-.3-7.9-4.3-11.5-7-1.8,4.2-1,13-6.5,14-18.6,3.3-40.9,1.8-60,2-37.4.4-42.5,5.4-67.4-25.5-8.6-10.6-16.4-21.6-20-35-54.2-7.5-110.1-25.4-157.7-52.3-32.5-18.3-57.5-36-74.9-70.1-36.8-72.4-30.6-174,3.7-246.4,32-67.5,88.6-68.1,145.9-98.1,30.2-15.9,60-56.5,56-92-.6-5.3-4.4-8.6-4.9-14.1-.2-2.7.9-7.2.8-7.8-.6-2.6-10.4-1.4-13.2-1.7-23-2.6-43.3-10.9-55.8-31.2-11.8-19.2-11.3-37.2-6.8-58.7-6.8-.7-13.7-2.4-20.5-3-56.9-5.2-95.9,32.5-111.8,84.2-11.4,37-6.6,89.4,35,104.5,5.4,2,15.2,1.3,13.1,8.5-1.5,5.2-15.6,7-20.4,7.6-40.5,5.2-83.3-13.6-99.5-52.2-23.3-55.2-19-130.6,9-183.3,26.6-50.1,82.2-83.4,136.1-96.8,37.6-9.4,77-12.8,115-3.5l-140.8-129.7c-1.3-4.2,2-10.8,3.8-14.8,6-13.8,17.5-31.2,26.2-43.8C244.2,78.2,379.2,14.5,516.5,0l5.1,2.7,105.2,155.8c11.2-2.4,22.1-6,33.3-8.4,41.9-8.8,86.1-11.8,123.3,12.7,2.3,1.6,7.4,7.3,9.9,6.7,1.2-.3,6.5-4,8.1-5,22.7-15,40.6-38.7,49.7-64.3,5.3-14.9,6.8-45.2,30-39,12.5,3.3,31.9,39.7,33,52,1.5,17.3-2.5,33.8-6,50.5h0ZM281.2,183.6c-31.1,30.2-56.3,66-73,106-1.4,3.4-6.3,9-4.5,13,.6,1.3,20,19.2,21.4,19.6.8.2,1.8,0,2.4-.5,1-.7,8.8-18.5,10.5-21.8,62.1-113.3,179.1-175.1,303.9-195,11-1.8,22.2-2.6,33.2-4.3.8-1.2-13.2-21.6-15.2-24.3-1.1-1.5-4.6-7.1-5.3-7.7-2.8-2.3-15.5-.3-19.9.1-90.5,9-188.6,51.9-253.6,114.9h0ZM798.4,265.4c-2.2-2.1-.4-5.8,1.8-7.2,35.4-15,69.5-38.3,88.1-72.9,3.8-7,6.3-14.6,9.3-21.7,5.1-12,9.1-37.6,7.4-50.4-1.1-8.1-15.3-33.9-21.4-39.6s-11.6-5.3-15.7,2.3-6.4,24.1-10.3,33.7c-14.3,34.8-30.5,45-58,67-1.6,1.3-2.6,4-3.5,4.5-1.7,1-4.7.2-7,1-7.8,2.4-17.8,9.4-26,12-52.6,16.8-109,1.3-157.7,28.3-11.2,6.2-19,13.1-26.5,23.4-2.7,3.7-13.8,19.1-15,22-.7,1.6-1,3-.8,4.7.8.9,6.7-3.6,8.3-4.2,10.8-4.2,65.1-2.4,79.1-.7,35.2,4.3,74.5,15.2,105.3,32.7,3.8,2.1,20.7,14.3,22.6,14,20.6-8.8,41.2-18.4,59.1-32,19.4-14.8,39.3-49,63.2-53.7,32.2-6.4,67.6-5.1,98.9-18.1,4.4-1.8,9.3-2.8,5.9-8-17.3-26.5-60.6-34.6-89.8-30.9-2.7.3-9.8,1.1-11.6,2.4-2,1.5-6.9,13.8-8.9,17.1-16.7,28.8-41.1,50.1-70.5,65.5-4.6,2.4-18.8,9.9-23.1,9.8-1,0-2.6-.5-3.3-1.2h0ZM179.8,223c-10.3-6.6-22.3,2.4-19.1,13.6,1.2,4.5,16.8,21.6,21,26,6.1,6.3,12.6,12,19,18l13.5-25c-1.6.2-2.8-.5-4.1-1.4-10.2-7.8-20.4-24.8-30.3-31.2h0ZM341.2,542.6c.5,1.4,8.3,2.4,10,1.6,34.3-21.3,72.4-34.7,109.4-50.5,1.2-.9.6-2.8.6-4.1,2.7-62.1,26.2-133.5,90.8-155.7,63.4-21.8,110.3,20.8,137.1,73.3.4.8.3,3.1,2.1,1.4.3-.3,2.2-6.5,3.2-8.4,14.7-27.6,34.9-51.2,64.2-63.8,6.5-2.8,13.3-4.4,19.7-7.3-34-27.7-77.3-44-120.6-50.3-21.1-3-51.8-5.2-72.8-3.2-6.8.7-13.4,5.1-19.1,5.9-4.6.7-10.2-.3-14.9,0-22.8,1.9-48.5,20.2-66.8,33.2-50.3,35.7-154,114.8-148.6,183.3l6,44.5h0ZM240.3,317.5c9.9,7.1,19,16.2,27.4,25.1,7.3,7.7,16.6,26.2,29.4,14.4,8-7.3,3.2-15-1.9-21.9-11.7-15.6-27.5-29.1-42.5-41.5-2.2,2.5-13.2,22.8-12.4,23.9h0ZM477.2,487.6h41.5c1.5,0,3.8-9.4,5.5-11.5s4.9-3.6,7-5.9c4.6-5.2,8-10.8,13.4-15.5,6.8-6,16.2-11.3,24.5-15,.5-.7-.8-2.9-1.5-3-2.1-.1-18.5,9.6-21.4,11.6-2.2,1.5-10.1,9.1-10.8,9.3-2.6.7-5.3-3.2-7.4-4.4-1.3-.7-3.8-.4-3.9-.6-1.4-1.4,5.5-34.2,6.7-38.8,4.5-17.7,21.3-67.9,44.7-38.1,11.4,14.5,14.8,36.1,19.5,53.5,32.3-4.1,66.9-3.3,91,21.4-10-58.3-61-122.4-126.8-102.3-54.4,16.7-83,86.6-82.2,139.3h0ZM749.2,470.6c9.3-10,13.2-18.1,26-25.5,3-1.7,16.4-6.8,17-7.5,2.6-2.8-4.3-1.7-5-1.5-15.5,3.5-33.7,17.9-41.5,31.5-4.8-1.8-7.8-8.6-13.5-6,1.8-17.6,4.9-36.1,10.5-53,5.8-17.3,21.1-50,40.9-25,10.4,13.2,13.6,32.8,18.5,48.5,9.3.9,18.6-2.7,28.1-1.5-2.1-21.2-9.5-42.6-20.7-60.7-2-3.2-5.7-9.1-7.9-12.2-1-1.4-9.8-10.5-10.9-11.1-7.4-4.2-29,5.8-36.2,9.9-20.3,11.6-37.2,32.9-47.2,53.8-2.3,4.9-7.8,17-8.2,21.9-.5,7.3,5,24.9,6,34,.9,7.7,1,15.7,1,23.5,7.5-1.7,14.6-2.5,22.4-1.9,2.2.2,6.4,2.3,8,1.8s4.5-12.1,5.6-14.9c1.8,0,3.9,0,5.4-1.1,1.6-1.1,1.3-2.6,1.6-2.9h0ZM90.7,708.6c5.8.5,13,0,19,0s2-1.5,1-2c-41.7-22.7-45.3-76.5-31.3-117.2,17.5-50.9,57.3-89.7,114.2-86.7,9.5.5,19.1,2.8,28.5,4,2.2-6.1,2.2-13.1,3.5-19,2.9-12.9,30.4-54.1,39.3-66.7,6.3-8.9,13.4-17.2,20.2-25.8.3-2.1-.2-1.2-1.4-1.6-21.1-7.7-56.8-9.1-79.1-6.9-72,7.3-147,42.7-177.7,111.3-29,65-31,201.9,63.7,210.6h0ZM596.2,436.6c6.6,45,7.3,92.2-.3,137.2-3.1,18.3-7.9,38.4-17.7,54.3,7.7,8.2,20.2,4.7,29.8,1.8,45.5-13.8,74.1-67.5,80-111.9,2.2-16.5,4.7-47.2-7.3-60.4-4.4-4.8-25.3-14.8-32-17-17.2-5.7-34.6-5.4-52.5-4h0ZM832.1,438.6h-14.5c-.8,0-10.9,1.8-11.8,2.2-1.2.5-1.7,1-1.7,2.3l5,55.9c7.6,2.6,16.4,2.4,23,7.6,2.5-22.6,1.9-45.3,0-68h0ZM849.1,507.6l51.3-18.2c3.5-1.8-.7-10.3-2.1-13.5-4.7-11-13.7-22.9-24.2-28.8-5.3-3-17.5-8.5-23.5-8.5-1.7,0-1.7-.2-1.5,1.5.4,6.3,1.8,13.7,2.1,20,.6,15.8-.2,31.8-2,47.5ZM542.2,464.6c-3.8,7.1-8.3,13.6-11.5,21-1,2.4-4.8,11.1-5.1,12.9-.2,1.2-.3,2.7,1.1,3,2.2.5,31.2-18.9,35.5-21.5l-1.5-2.5-18.5-13h0ZM763.1,482.6c1.3-1.9-8.5-8.2-10.5-9l-6.5,17,17-8h0ZM729.2,502.6c-3.8-.7-22.8,1.4-23.9,4.6,1.3,16.8-12.2,35.4-1.6,50.3,7.5-6.1,16.6-11.2,26.5-11l-1-44h0ZM823.6,637.6c2.7.7,12.3,0,16,0,6.1,0,19.3-7.8,24-12,24.3-21.4,39.8-81,41.5-112.5,0-1.8,1.1-8-1.5-7.5l-55.5,13c-1.7,11.7,3.5,20.2.7,32.2-1.9,8.2-7,14.2-9.4,21.6-3.5,10.6-5.6,24.2-8.6,35.4-2.5,9.2-5.5,18.4-8.6,27.5-.4.8.8,2.2,1.3,2.3h0ZM520.2,509.6l-42-1c3.8,38.2,21,82.3,52.5,106,1.1.8,7.8,5.7,8.5,5-13.5-34.9-17.1-72.8-19-110h0ZM403.2,664.6c-.2-.3-3-7.1-3-7.6-.3-4.6,9-23.2,11.8-28.1,14.7-26.4,38-46.7,63.1-63-2.9-11.2-6.9-22-9.4-33.3-1.6-7.2-2.5-14.6-3.5-22l-6,.4-111.9,42.6c8.3,40.2,27.4,79.3,52.9,111.4,1.2,1.6,3.1,2.5,4,3.5,71.7,86.2,189.1,147.4,301,98.5,41-18,79.4-59.3,98.5-99.4,2.4-5,8.7-19.7,8.4-24.6-.2-3.9-9.8-5.4-12.8-7-3.6-1.9-16.1-13.2-17.7-13.5-3-.4-4,1.7-6,2-2.7.4-5.2-1.1-7.9-1-5,0-15.5,4.4-19.9,2.9-1.3-.4-1.3-2.3-2.4-2.8-6.5-3.1-16.2-4.5-21.6-10.1-1.4-1.4-2.3-4.5-3.7-5.3-1.3-.8-3.8-.4-4.5-1.5-.3-.4-1.5-9.2-1.5-10.5.2-17.1,9.3-26.6,19-39-3.1-1.5-6.7.2-9.7,1.3-9.5,3.7-32.6,22.9-38.8,31.2-3.8,5-5.8,13.1-9,19-10,18.5-27.8,37.9-50,40-20.6,1.9-51.2,2.3-70.7-4.3-34.5-11.7-54.6-37.9-71.6-68.4-.5-.9.4-1.7-1.6-1.2-3.5,1-18.4,12.8-22.1,15.9-13.1,10.9-29.5,29.5-37.7,44.3-5.3,9.6-9.9,20.8-11.8,31.7-.6.6-3.6-1.5-4-2h0ZM803.9,520.8c-4.9-4.9-24,6.7-28.7,10.3-3.6,2.9-20.2,20.5-18,24.3.2.3,4.9,2.8,5.6,3,15,3.4,29.7-11,37.1-22.5,2.2-3.3,7.5-11.5,4-15.1h0ZM346.2,595.6c-13.9,3.5-27.6,8.1-42,9,6.8,24.1,6.2,44.7-3.8,67.7-36.8,84.2-130.9,63.3-181.1,128.8-22.8,29.7-39.1,95.6-41.1,132.9-2.5,46.6,7.8,107.3,35.2,145.8,33.8,47.4,133.9,84,189.8,95.2,6.3,1.3,14.2,3.1,20.5,3.5,3.2.2.6-4.5.5-6.5-1.2-31.4,18.1-59.1,50.6-62.4,31.9-3.2,48.2,12.7,65.2,36.6,1.3,1.8,7.1,12.2,7.9,12.4l21.3-4.1c-4.4-8.8-10.2-17.4-15.6-25.9-10.3-16.3-19.7-20.3,5.6-27.6,5.2-1.5,10.9-1.7,16-3.5-11.9-39.4-.5-82.4,27.9-111.6l-14.5-18.3c-4.7-1.1-2.8-2.6-4.2-5.7-1.6-3.6-10.7-24-11.8-25.3-3-3.4-12.7-8.5-17-13-14.5-15-20-37.6-13.5-57.5,4.4-13.3,15.9-23.1,23.4-34.5,1.3-2,5-7.7,5.6-9.5.5-1.9-.3-1.3-1.5-1.5-4.6-.6-13.1.5-18,1-33.8,3.9-66.9,18.1-78.3,52.7-.9,2.7-3.4,8.5-1.2,10.8,6.5,4.4,17.1,8,22.5,13.5,3,3,3.3,6.8,5.6,9.4,7.9,8.9,17.2,8,25.7,22.3,15.9,26.6,23.2,64.2-1.3,88.3-2.4,2.4-5.7,2.6-6.3,3.2-.4.4-2.4,8.1-3.4,10.1-3.7,8-9.3,14.8-17.3,18.7-10.7,5.2-19.4-1.2-30,0-5.9.6-10.3,4.9-16.2,5.7-15.8,2.3-19.1-2.5-31.5-7.9-16.7-7.3-32.4,2.9-45.5-17.5-20-31.1-17.5-58.9-4.7-92.3,2.6-6.9,12.7-23.5,13.3-28.8.7-6.6-2.2-10.3,1-18.9,3.4-9.2,5.1-5.9,11.1-8.9,3.9-2,7.5-5.4,12.1-6.9,2.6-.8,10.8-1.5,11.5-2.5.6-.8,4.3-16.2,5.5-19.5,13-36.6,39.5-60.8,76.8-71.2,27.4-7.7,57.4-11,85.6-14.4,2.6-.8,1.7-6.3,1.5-8.7-64.3-34.7-114.9-95.7-141.8-163.1h0ZM815.1,599.6c-.7-.8-8.8,5.9-9,6.6-.2,1,3.6,5,4.5,5.4,1.7.7,1.6-1,1.9-2,.5-1.4,3-9.5,2.5-10h0ZM809.1,632.6c1.4-6.4-1.9-17.5-8-20.5-2.3-1.1-9.9,6.2-14,4.6-1.7,1.6,8.3,8.9,9.7,9.8,1.5,1,11.5,7.1,12.3,6.2h0ZM648.7,625.6v1c.7-.3.7-.7,0-1ZM643.2,630.6c1.2,1.2,4-2.5,3.5-4-.8.8-5,2.5-3.5,4ZM642.2,630.6l-9,6c1.7.6,10.6-4.4,9-6ZM893.8,854.2c-4.9,3.2-9.6-.8-7.2-6.6.9-2.2,10.6-7.9,13.4-10.6,10.7-10.5,8.8-15.6,11.3-28.6,3-15.2,2.8-11.2,11.8-21.2,9.8-11,21-31.5,14.2-46.2-2.1-4.5-9.8-12.5-15.2-9.8-1.3.6-9.5,15.9-12,19-17.2,21.3-35.4,24.3-58.7,34.3-13.2,5.7-26.7,18.7-29.9,33.2-1.2,5.6,5,9.1,8,13.1,18.9,25.6,29.2,52.6,20.6,84.9,28.4,7.2,57,2,85.5-1,8.9-.9,18-1,26.9-2.1,7-.9,28.1-3.3,32.6-7.4,8.6-7.9-11.6-11.1-15.9-12-7.1-1.5-29.4-3.4-34-6s-1-10.1,2.7-12.2c23.3-10.2,52.7-18.5,74.3-31.7,2.1-1.3,11.4-7.8,11-10-2-1.8-5.9-2.3-8.5-2.5-12.7-1.1-34.8,2.6-47.7,5.3-5.5,1.1-15.1,5.3-19.4,5.7-7.9.7-5.4-8.2-.8-11.8,8.3-6.4,29.6-13.6,40.4-19.6,6-3.3,26.6-15.3,27-22.1.2-3.6-5.3-6.8-8.6-7.3-11.5-1.8-45.3,8.2-57.6,12.2-5.1,1.6-35.6,12.3-36.6,15.4-1,2.8-1.2,9.7-2.2,13.8-3.9,14.9-11.3,21.3-23.3,29.7-.9.7-1.3,2.1-2,2.5h0ZM503.2,767.6c-1.8-2.9-7.3-5.7-9-1.5-1.1,2.8,7.9,1,9,1.5ZM553.2,913.6c.4-21.3,2.2-43.1,1-64.5-1.2-23.3-11-44.1-21.5-64.5-.9-1.7-1-4.8-2-6s-11.3-4.9-12.5-4c8.4,11.6,17,27,20.3,41.1,6.6,27.8,1.7,57.4,3.6,85.4.7,9.7.2,12.4,11,12.5h0ZM360.2,909.6v-19.5c0-37.3,36.8-65.9,70-74,14.9-3.6,28-2.3,41.5-4.5,2.6-.4,4.4-2.9,6-2.9,2.5,0,6.4,5,10.4,2.8l17.2-34.3c-21.4-1.5-43.1,2.2-64.2,5.8-20.1,3.5-43.8,7.7-61.7,17.3-36.6,19.6-54.8,62-54.1,102.3l35,7h0ZM570.2,816.6c7.2,32.1,6.4,65.6,5.1,98.3.9,2.9,13,1.5,16.4,1.6,11.5.5,27.6,1.3,38.9-1,2.2-.4,4.5-1.4,5.3-3.7,1.6-4.4,3-21.2,3.3-26.7,1.3-24.4-.3-46-6-69.5-1.6-6.7-2.8-13.4-5.1-19.9-22.3-.3-44.6-3.1-66.4-8.1-1,0-.5,1.5-.3,2.3,2.3,8.8,6.6,16.8,8.8,26.7h0ZM524.2,877.6c.1-23-.5-51.9-7.7-73.8-1.2-3.5-5.5-16.5-9.1-11.6-5,6.7-8.5,18.7-11.6,26.3-7.2,17.3-23.1,49.8-11.3,67.3,4.6,6.9,6.1,3.9,10.8,6.2,2,.9,3.3,6,5,7,1.9,1.1,7.8,1.4,10.6,2.4.2,0,3.7,1.8,4.4,2.2,1.3.7,6.6,5.4,8,4,.7-10,1-20,1-30h0ZM651.2,810.6c-2.6-.4-2.1.5-2,2.5.2,11,4.3,24.4,5,36,1.2,19.6-.8,40.3,0,60-.9,2.9,6.3.7,6.8.2,2.6-2.6,2.5-35.5,2.3-41.3-.3-7.4-1.2-16.5-2.2-23.8-1.6-11.7-4.5-23.1-9.9-33.6h0ZM483.2,821.6c-3.3-2.5-5,6.1-5.8,7.7-12.6,23-33.8,33.2-27.9,63.6,2.2,11.2,9.8,23.2,19.2,29.8,2.7-9.2-6.1-11.1-3.4-21.4,2.4-8.9,2-10.1,2.9-19.1,2-18.7,7.4-37.3,12.7-55.3.4-1.3,2.5-5,2.3-5.2h0ZM822.1,918.5c7.7,2.6,11.5,7.5,17.2-1.3,7.4-11.7,4-40.8-.7-53.7-2.6-7.1-15.9-29.2-21.6-33.4-1.5-1.1-4-1-5.5-2.5-1.3-1.3-1.3-3.5-2.5-4.5-1.8-1.5-6.4-1.9-8.4-.6-2.5,1.7,1.1,2.3,1.9,3,15.8,15,40.7,67.4,26,87-1.9,2.5-3.1,2.4-5.1,3.8-.9.6-1.8-.2-1.3,2.2h0ZM813,856.7c-41.9,11-82.2,3.7-119.6-16.9l-25.3-16.2c5.5,15.5,10.4,31.3,12.2,47.8,44.4,19.8,95.2,29.2,142.8,15.2l-10.1-29.9h0ZM807.1,848.5c2.2-2.7-10.8-19.1-14-17-1.3,6.6-2.3,13.3-2,20,2.2-.7,15.4-2.4,16-3h0ZM317.2,882.6c-3.5-1.2-17.5,4.8-16.9,8.4,1.1,3.1,14.1,9.4,15.9,7.6l1-16ZM369.2,894.6v16c5.4-.1,12.8.5,17.8-1.7,3-1.3.8-4.2-.8-5.7-1.5-1.5-16.2-9.3-16.9-8.5h0ZM376.2,920.6c4-.2,15.8,2.1,15-3.5-.2-1.6-13.7,2.4-15,2.5-16.1,1.3-63-8.9-76.7-17.8-2.7-1.7-4.6-4-6.8-6.2-8.1,15.6,14.7,19.2,25.5,21.5,19.9,4.2,37.9,4.7,58,3.5h0ZM824.1,895.6c-2,.4-11.7,2.1-12,3.5,5.5,14.4,11.8,10,12-3.5ZM296.9,920c-1.8-.7-5.4-3.7-7.5-2.3-1.1.7-9.5,20.1-10.6,22.9-5,12.9-10.4,35.8-10.5,49.5,0,7.1,11.5,34.1,16.5,39.5,9,9.6,21.2,4.5,32.6,7.4,10.2,2.7,14.2,10.4,27.5,10.6,9.6.1,16.7-6.9,25-7.1,8.7-.2,16.3,5.8,25.1,1.2,18.6-9.7,15.7-35.2,13.2-52.6-.7-5-5.6-22.3-4.1-25.4,1.3-2.7,4.6-3.2,6.9-1.4,2.1,1.7,5.6,22.5,6.2,26.8,1,6.7,1.4,13.6,2.2,20.3l4.8-6.7c3.9-6.7,7.8-16.2,8.1-24,.4-10.5-10.2-39.5-16.9-47.8-1.7-2.2-12.3-11-14.5-10.5-1.4.3-1.4,6.7-9.1,7.9-26.7,4.1-70.7,1.4-94.8-8.5h0ZM488.4,920.8c-3.5,3.5-1,14.2.3,18.8,3.7,13.5,23,43.5,38.1,45,5.6.6,9.3-4.4,7.7-9.7-3.5-11.2-20.9-21.6-26.5-35.6-1.9-4.8-1.7-9.9-5.3-14.7-2.4-3.1-10.8-7.2-14.2-3.8h0ZM512.9,992.8c-3.3-1.4-5.3,1.7-7.3,3.7-25.7,26.5-30.6,69.1-20.2,103.2,1.1,3.7,5.4,11.7,5.7,14.4.4,3.3-1.7,4.5-2,7.4l34,1-5.4-7.1c-18.1-37.8-6.1-79.2,20.4-109.3-8.1-3.8-16.2-7.6-24.2-11.6-.7-.4-.9-1.5-1.1-1.6ZM652.5,1121.2c2.9,1.1,18,2.8,21.1,2.3,2.7-.4,10-5.7,11-8s2.3-13.3,2.5-16.5c2.2-32.8-3.5-64.9-23.6-91.4-1.8-2.4-9.6-11.9-12-12.1-3.8-.4-18.6,9.7-24.2,9.8-.9.5-1.6-.2-1.3,1.7.2,1.3,10.5,12.7,12.4,15.6,18.3,27.8,19.8,64,11.6,95.5-.2.7,2.1,2.9,2.3,3h0ZM520.4,1092.3c9.3,2.6,18.4,6,26.7,10.8,7.3,4.3,8,9.3,17.5,2.4,21-15.1,43-49.9,52-74,1.2-3.3,5.2-14.4,4-17-4-8.6-15.7-2.8-23-2-10.1,1.1-20.8,1.1-30.9-.1-6.5-.8-13-2.8-19.5-3.8-4.7,8-11.3,14.5-16,22.6-10.4,18.1-16.4,40.6-11,61.1h0ZM368,1123.7c-6.9,1-17.9,9.6-21.6,15.4-1.1,1.8-5.8,14.4-5.9,16-.1,2.4,2.5,4.9,4.4,6.2,12.2,7.9,12.3-6.5,17.3-13.3,4.7-6.4,16.3-10.1,18.3-14.8s-7.4-10.2-12.5-9.5ZM476,1128.8c-.9-.9-7.5-2.1-9.3-2.2-1.6-.2-2.8-.7-2.5,1.5.2,1.9,10.4,18,12.1,19.9,3.1,3.3,7.5-.9,6.9-4.8-.5-3.6-7-9.7-7.2-14.3h0ZM633.2,1154.5c7.4-2,6.1-24,2-26.5-1.5-.9-5.6-.9-6.6.4-1.7,2.3,5.2,21.6,4.6,26.1ZM765.9,1135.8c-12.7,1.8-38.4,14.9-36.8,30.3.3,2.9,2.5,5.3,5.5,5.4,5.6.1,14.8-10.9,20.6-14.3,6.3-3.7,13.9-5.6,20-9,11.9-6.7,1.7-13.9-9.3-12.3h0ZM493.9,1154.8c-4-3.9-11.8,3.1-15.7,5.3-3.1,1.7-11.2,2.6-9.3,7.2,2.7,6.5,8.9,3.2,13.6,1.2,4-1.7,17-8.1,11.4-13.6h0ZM631.4,1203.2c3.4,3.1,7.3.4,9-3,.6-1.2,4.9-14.4,4.9-15.2,0-3.2-3.1-6.1-6.3-5.3-6.3,1.6-11.9,19.6-7.5,23.6h0Z"/>
  <path class="st0" d="M346.2,595.6c27,67.5,77.5,128.5,141.8,163.1.2,2.3,1.1,7.9-1.5,8.7-28.2,3.4-58.2,6.8-85.6,14.4-37.3,10.4-63.8,34.6-76.8,71.2-1.2,3.3-4.8,18.7-5.5,19.5-.7,1-8.9,1.7-11.5,2.5-4.6,1.5-8.2,4.9-12.1,6.9-6,3-7.7-.3-11.1,8.9-3.2,8.6-.3,12.3-1,18.9-.6,5.3-10.7,21.9-13.3,28.8-12.8,33.4-15.3,61.2,4.7,92.3,13.1,20.4,28.8,10.2,45.5,17.5,12.4,5.5,15.8,10.2,31.5,7.9,6-.9,10.3-5.1,16.2-5.7,10.7-1.1,19.4,5.2,30,0,8.1-3.9,13.6-10.7,17.3-18.7.9-2,3-9.8,3.4-10.1.6-.6,3.9-.8,6.3-3.2,24.4-24.2,17.2-61.7,1.3-88.3-8.5-14.3-17.8-13.3-25.7-22.3-2.3-2.6-2.6-6.4-5.6-9.4-5.4-5.5-16-9.1-22.5-13.5-2.1-2.3.4-8.1,1.2-10.8,11.4-34.6,44.5-48.8,78.3-52.7,4.9-.6,13.4-1.6,18-1,1.2.2,2-.4,1.5,1.5-.5,1.8-4.3,7.5-5.6,9.5-7.5,11.5-19.1,21.2-23.4,34.5-6.5,19.9-1,42.5,13.5,57.5,4.3,4.5,14,9.6,17,13,1.1,1.2,10.1,21.7,11.8,25.3,1.4,3.1-.5,4.6,4.2,5.7l14.5,18.3c-28.5,29.2-39.8,72.2-27.9,111.6-5.2,1.8-10.8,2-16,3.5-25.3,7.2-15.9,11.3-5.6,27.6,5.3,8.5,11.2,17.1,15.6,25.9l-21.3,4.1c-.8-.2-6.6-10.5-7.9-12.4-17-23.8-33.3-39.8-65.2-36.6-32.5,3.3-51.8,30.9-50.6,62.4,0,2,2.6,6.7-.5,6.5-6.3-.4-14.2-2.2-20.5-3.5-55.8-11.2-156-47.8-189.8-95.2-27.4-38.6-37.8-99.3-35.2-145.8,2-37.3,18.3-103.2,41.1-132.9,50.2-65.6,144.3-44.7,181.1-128.8,10-23,10.6-43.6,3.8-67.7,14.4-.9,28.1-5.5,42-9h0Z"/>
  <path class="st3" d="M403.2,664.6c.4.5,3.4,2.6,4,2,1.9-10.9,6.5-22,11.8-31.7,8.2-14.8,24.6-33.4,37.7-44.3,3.7-3.1,18.6-14.9,22.1-15.9,1.9-.5,1.1.3,1.6,1.2,17,30.5,37,56.7,71.6,68.4,19.5,6.6,50.1,6.2,70.7,4.3,22.2-2,40.1-21.4,50-40,3.2-6,5.2-14,9-19,6.2-8.2,29.4-27.5,38.8-31.2,3-1.2,6.5-2.8,9.7-1.3-9.7,12.5-18.8,22-19,39,0,1.3,1.2,10.1,1.5,10.5.8,1.1,3.2.7,4.5,1.5,1.4.8,2.3,3.9,3.7,5.3,5.4,5.6,15.2,7,21.6,10.1,1.1.5,1.1,2.4,2.4,2.8,4.4,1.5,14.9-2.8,19.9-2.9,2.7,0,5.2,1.5,7.9,1,2-.3,3.1-2.5,6-2,1.5.2,14,11.5,17.7,13.5,3.1,1.6,12.6,3.2,12.8,7,.2,4.9-6,19.6-8.4,24.6-19.2,40.2-57.5,81.5-98.5,99.4-111.8,48.9-229.3-12.3-301-98.5l2-4h0ZM489.5,645.9c-5.4,5.3-19.2,28.9-15.9,35.7,1,2,3.8,2.4,5.8,1.8,4.1-1.2,8.3-26.8,14.1-25.8.8.2,10.2,9.3,12.9,11.2,33,23,89.6,30.3,129.2,31.8,12,.5,30.5,1.2,42,0,6.4-.7,10.7-5.1,4-9-42.1.4-85,0-125.9-11.1-13.1-3.5-31.2-9.9-42.3-17.7-1.7-1.2-13-11-13.2-11.9-.9-5,17.4-7.5,19.5-9.3s2.3-7.1-.2-7.9c-8-2.7-24.2,6.6-30,12.2h0Z"/>
  <path class="st0" d="M341.2,542.6l-6-44.5c-5.4-68.5,98.4-147.6,148.6-183.3,18.3-13,44-31.2,66.8-33.2,4.8-.4,10.3.6,14.9,0,5.7-.9,12.2-5.2,19.1-5.9,21-2.1,51.8.1,72.8,3.2,43.3,6.3,86.6,22.6,120.6,50.3-6.4,2.9-13.2,4.5-19.7,7.3-29.2,12.6-49.5,36.2-64.2,63.8-1,1.9-2.8,8-3.2,8.4-1.7,1.7-1.7-.6-2.1-1.4-26.8-52.5-73.7-95-137.1-73.3-64.6,22.2-88.1,93.6-90.8,155.7l-120,53h0Z"/>
  <path class="st0" d="M798.4,265.4c.7.7,2.3,1.2,3.3,1.2,4.3,0,18.5-7.4,23.1-9.8,29.3-15.4,53.8-36.8,70.5-65.5,2-3.4,6.9-15.6,8.9-17.1,1.8-1.4,8.9-2.1,11.6-2.4,29.2-3.6,72.5,4.4,89.8,30.9,3.4,5.2-1.5,6.1-5.9,8-31.3,13-66.8,11.6-98.9,18.1-24,4.8-43.8,38.9-63.2,53.7-17.9,13.6-38.5,23.2-59.1,32-1.8.2-18.8-11.9-22.6-14-30.8-17.5-70.1-28.4-105.3-32.7-14-1.7-68.3-3.6-79.1.7-1.6.6-7.5,5.1-8.3,4.2-.2-1.7.1-3.1.8-4.7,1.2-3,12.3-18.3,15-22,7.6-10.4,15.3-17.2,26.5-23.4,48.6-27.1,105-11.6,157.6-28.3,8.2-2.6,18.2-9.6,26-12,2.3-.7,5.3,0,7-1,.9-.5,1.9-3.2,3.5-4.5,27.5-22,43.7-32.2,58-67,3.9-9.6,6.2-26.2,10.3-33.7s9.5-8,15.7-2.3,20.4,31.5,21.4,39.6c1.7,12.8-2.3,38.4-7.4,50.4-3,7.1-5.5,14.6-9.3,21.7-18.6,34.5-52.7,57.8-88.1,72.9-2.2,1.5-4,5.1-1.8,7.2h0Z"/>
  <path class="st0" d="M90.7,708.6C-4,699.8-2,562.9,27.1,497.9c30.7-68.6,105.7-104,177.7-111.3,22.3-2.3,58-.8,79.1,6.9,1.1.4,1.7-.5,1.4,1.6-6.8,8.6-13.9,16.9-20.2,25.8-8.9,12.6-36.4,53.8-39.3,66.7-1.3,5.9-1.2,12.9-3.5,19-9.4-1.1-19-3.5-28.5-4-56.9-3-96.7,35.8-114.2,86.7-14,40.8-10.4,94.6,31.3,117.2,1,.5-.9,2-1,2-6,0-13.2.5-19,0h0Z"/>
  <path class="st3" d="M893.8,854.2c.6-.4,1-1.8,2-2.5,12-8.5,19.4-14.8,23.3-29.7,1-4,1.3-11,2.2-13.8,1.1-3,31.5-13.7,36.6-15.4,12.4-4,46.1-14,57.6-12.2,3.2.5,8.8,3.7,8.6,7.3-.4,6.8-21,18.8-27,22.1-10.8,6-32.1,13.2-40.4,19.6-4.6,3.6-7.1,12.5.8,11.8,4.2-.4,13.9-4.5,19.4-5.7,12.8-2.7,35-6.4,47.7-5.3,2.6.2,6.6.7,8.5,2.5.5,2.3-8.9,8.8-11,10-21.6,13.2-51,21.5-74.3,31.7-3.6,2.1-7.1,9.7-2.7,12.2s26.8,4.5,34,6c4.3.9,24.6,4,15.9,12-4.5,4.1-25.6,6.5-32.6,7.4-8.9,1.1-18,1.2-26.9,2.1-28.5,3-57.1,8.2-85.5,1,8.7-32.3-1.6-59.3-20.6-84.9-3-4-9.2-7.5-8-13.1,3.2-14.5,16.7-27.5,29.9-33.2,23.2-10,41.5-13,58.7-34.3,2.5-3.1,10.7-18.3,12-19,5.4-2.7,13.1,5.3,15.2,9.8,6.8,14.7-4.3,35.2-14.2,46.2-8.9,10-8.8,6.1-11.8,21.2-2.6,13-.7,18.2-11.3,28.6-2.7,2.7-12.4,8.4-13.4,10.6-2.5,5.8,2.3,9.9,7.2,6.6h0Z"/>
  <path class="st3" d="M296.9,920c24,9.9,68,12.6,94.8,8.5,7.8-1.2,7.7-7.6,9.1-7.9,2.2-.5,12.7,8.3,14.5,10.5,6.7,8.4,17.3,37.3,16.9,47.8-.3,7.8-4.3,17.3-8.1,24l-4.8,6.7c-.8-6.8-1.1-13.6-2.2-20.3-.7-4.2-4.1-25-6.2-26.8-2.3-1.8-5.6-1.4-6.9,1.4-1.5,3.1,3.4,20.4,4.1,25.4,2.5,17.3,5.5,42.9-13.2,52.6-8.9,4.6-16.5-1.4-25.1-1.2-8.4.2-15.5,7.2-25,7.1-13.3-.2-17.3-7.9-27.5-10.6-11.3-3-23.6,2.1-32.6-7.4-5-5.3-16.6-32.3-16.5-39.5.1-13.7,5.5-36.6,10.5-49.5,1.1-2.8,9.5-22.2,10.6-22.9,2.1-1.3,5.7,1.6,7.5,2.3h0ZM304.4,968.8c-1.1,1.1-1.1,3.7-1.3,5.2-.6,7.4-.9,25,0,32.1.9,6.5,8.1,6.9,9,2s.8-30.6,0-36c-.6-4.4-4.9-6.2-7.8-3.2h0ZM376.4,1014.3c4.8,4.8,8.1-1.7,8.6-6.4.7-5.5,1-25.9,0-30.8-1-5.5-8.9-4.3-8.9,1,1.5,6.3-3.3,32.7.1,36.2h0ZM348,1021.3c1.1-1.1,1.1-3.7,1.3-5.2.5-5.7.9-23,0-28-.7-4-5.9-6.3-8.4-2.5-2.3,3.5-2.3,30.4-.3,34.2,1.6,3,5.2,3.8,7.5,1.5h0Z"/>
  <path class="st3" d="M596.2,436.6c17.9-1.4,35.3-1.7,52.5,4,6.8,2.2,27.6,12.1,32,17,12,13.2,9.5,43.9,7.3,60.4-6,44.5-34.6,98.1-80,111.9-9.6,2.9-22,6.5-29.8-1.8,9.8-15.8,14.6-36,17.7-54.3,7.6-45,6.9-92.2.3-137.2h0Z"/>
  <path class="st0" d="M281.2,183.6c65-63,163.1-105.8,253.6-114.9,4.4-.4,17.1-2.4,19.9-.1.7.6,4.2,6.2,5.3,7.7,2,2.7,16,23.1,15.2,24.3-11,1.7-22.2,2.6-33.2,4.3-124.8,19.9-241.8,81.7-303.9,195-1.8,3.2-9.5,21.1-10.5,21.8-.6.4-1.6.6-2.4.5-1.4-.4-20.8-18.2-21.4-19.6-1.8-3.9,3.1-9.6,4.5-13,4.8,3.1,5.9,8.7,11.5,3,9.9-9.9,15.9-22.7,24.1-33.9,12.3-16.9,31-36.7,41.2-53.8,4.8-8,4.2-15.9-3.8-21.3h0Z"/>
  <path class="st3" d="M477.2,487.6c-.8-52.7,27.8-122.6,82.2-139.3,65.8-20.2,116.8,44,126.8,102.3-24.2-24.7-58.7-25.5-91-21.4-4.7-17.4-8.2-39-19.5-53.5-23.4-29.8-40.2,20.4-44.7,38.1-1.2,4.6-8.1,37.4-6.7,38.8.2.1,2.6-.1,3.9.6,2.1,1.1,4.8,5,7.4,4.4.7-.2,8.7-7.7,10.8-9.3,2.8-2,19.3-11.7,21.4-11.6.6,0,2,2.2,1.5,3-8.3,3.7-17.7,9-24.5,15-5.4,4.8-8.8,10.4-13.4,15.5-2.1,2.4-5.4,3.8-7,5.9s-4,11.5-5.5,11.5h-41.5Z"/>
  <path class="st0" d="M401.2,668.6c-.8-1-2.7-2-4-3.5-25.5-32.1-44.7-71.1-52.9-111.4l111.9-42.6,6-.4c1,7.3,2,14.7,3.5,21.9,2.5,11.3,6.5,22.1,9.4,33.3-25,16.3-48.3,36.6-63.1,63-2.8,5-12.1,23.5-11.8,28.1,0,.5,2.7,7.2,3,7.6l-2,4h0Z"/>
  <path class="st3" d="M742.2,474.6c-1.2,2.8-4,14.4-5.6,14.9s-5.7-1.6-8-1.8c-7.8-.6-14.8.2-22.4,1.9,0-7.8-.2-15.8-1-23.5-1-9.1-6.6-26.7-6-34,.3-4.9,5.8-17,8.2-21.9,10-20.9,26.9-42.2,47.2-53.8,7.2-4.1,28.8-14.1,36.2-9.9,1.1.6,9.9,9.7,10.9,11.1,2.2,3.1,5.9,9,7.9,12.2,11.1,18.1,18.6,39.5,20.7,60.7-9.5-1.1-18.8,2.5-28.1,1.5-4.9-15.7-8.2-35.3-18.5-48.5-19.8-25.1-35.1,7.6-40.9,25-5.6,16.8-8.8,35.3-10.5,53,5.7-2.6,8.7,4.2,13.5,6,7.8-13.6,26-28.1,41.5-31.5.8-.2,7.7-1.2,5,1.5-.6.7-14,5.8-17,7.5-12.8,7.4-16.7,15.5-26,25.5-6.2-1.7-5.1-.6-7,4h0Z"/>
  <path class="st0" d="M360.2,909.6l-35-7c-.7-40.3,17.5-82.7,54.1-102.3,17.9-9.6,41.6-13.8,61.7-17.3,21.1-3.7,42.8-7.3,64.2-5.8l-17.2,34.3c-4,2.2-7.8-2.9-10.4-2.8-1.7,0-3.4,2.5-6,2.9-13.5,2.2-26.6.9-41.5,4.5-33.2,8.1-70,36.7-70,74v19.5h0Z"/>
  <path class="st0" d="M520.4,1092.3c-5.4-20.5.5-43,11-61.1,4.6-8,11.3-14.6,16-22.6,6.5.9,12.9,2.9,19.5,3.8,10.1,1.2,20.8,1.2,30.9.1,7.3-.8,19-6.6,23,2,1.2,2.6-2.8,13.7-4,16.9-9,24.1-31,58.9-52,74-9.6,6.9-10.2,1.9-17.5-2.4-8.3-4.8-17.4-8.2-26.7-10.8h0Z"/>
  <path class="st3" d="M633.2,815.6c5.8,23.6,7.3,45.1,6,69.5-.3,5.5-1.7,22.3-3.3,26.7-.8,2.2-3.2,3.2-5.3,3.7-11.3,2.3-27.3,1.5-38.9,1-3.3-.1-15.5,1.3-16.4-1.6,1.3-32.8,2.1-66.2-5.1-98.3,5.8-.5,10.4-4.2,16-5.5,15.6-3.8,32.2-.7,47,4.5h0Z"/>
  <path class="st0" d="M813,856.7l10.1,29.9c-47.6,14-98.4,4.6-142.8-15.2-1.8-16.5-6.7-32.3-12.2-47.8l25.3,16.2c37.4,20.6,77.6,27.9,119.6,16.9h0Z"/>
  <path class="st0" d="M652.5,1121.2c-.2,0-2.5-2.3-2.3-3,8.2-31.5,6.8-67.8-11.6-95.5-1.9-2.9-12.2-14.3-12.4-15.6-.3-2,.4-1.3,1.3-1.7,5.5,0,20.4-10.2,24.2-9.8,2.4.2,10.1,9.7,12,12.1,20.1,26.5,25.7,58.6,23.6,91.4-.2,3.1-1.5,14.2-2.5,16.5s-8.3,7.5-11,8c-3.1.5-18.2-1.2-21.1-2.3h0Z"/>
  <path class="st0" d="M512.9,992.8c.2,0,.3,1.2,1.1,1.6,8,4,16.1,7.8,24.2,11.6-26.5,30.2-38.4,71.6-20.4,109.3l5.4,7.1-34-1c.3-2.9,2.3-4.1,2-7.4-.3-2.7-4.6-10.7-5.7-14.4-10.4-34.2-5.5-76.7,20.2-103.2,2-2,3.9-5.1,7.3-3.7h0Z"/>
  <path class="st0" d="M524.2,877.6c-3.9,8-7.6,17.2-9,26-.6-.3-4.1-2.1-4.4-2.2-2.8-1-8.7-1.3-10.6-2.4-1.7-1-3-6-5-7-4.8-2.2-6.2.7-10.8-6.2-11.8-17.5,4.1-50,11.3-67.3,3.2-7.6,6.7-19.7,11.6-26.3,3.7-4.9,8,8.1,9.1,11.6,7.2,21.8,7.8,50.8,7.7,73.8h0Z"/>
  <path class="st3" d="M520.2,509.6c1.9,37.2,5.4,75.1,19,110-.7.7-7.4-4.2-8.5-5-31.5-23.6-48.8-67.8-52.5-106l42,1h0Z"/>
  <path class="st3" d="M208.2,289.6c16.7-39.9,41.9-75.8,73-106,8.1,5.4,8.6,13.3,3.8,21.3-10.2,17.1-29,36.9-41.2,53.8-8.2,11.2-14.1,24-24.1,33.9-5.6,5.6-6.7,0-11.5-3h0Z"/>
  <path class="st3" d="M240.3,317.5c-.8-1.1,10.2-21.3,12.4-23.9,15,12.4,30.8,25.9,42.5,41.5,5.2,6.9,9.9,14.5,1.9,21.9-12.8,11.8-22.1-6.7-29.4-14.4-8.4-8.9-17.5-18-27.4-25.1h0Z"/>
  <path class="st3" d="M832.1,438.6c1.9,22.7,2.5,45.3,0,68-6.6-5.2-15.4-5-23-7.6l-5-55.9c0-1.3.5-1.9,1.7-2.3,1-.4,11-2.2,11.8-2.2h14.5,0Z"/>
  <path class="st3" d="M179.8,223c9.9,6.4,20.1,23.3,30.3,31.2,1.3,1,2.4,1.6,4.1,1.4l-13.5,25c-6.4-6-13-11.6-19-18-4.2-4.4-19.8-21.5-21-26-3.1-11.2,8.9-20.3,19.1-13.6h0Z"/>
  <path class="st3" d="M553.2,913.6c-10.8,0-10.4-2.8-11-12.5-1.9-28,3-57.5-3.6-85.4-3.3-14.1-12-29.5-20.3-41.1,1.2-.9,11.4,2.8,12.5,4s1.1,4.3,2,6c10.6,20.3,20.3,41.1,21.5,64.5,1.1,21.4-.6,43.2-1,64.5h0Z"/>
  <path class="st3" d="M488.4,920.8c3.4-3.4,11.8.7,14.2,3.8,3.7,4.7,3.4,9.9,5.3,14.7,5.6,14,23,24.4,26.5,35.6,1.6,5.2-2,10.3-7.7,9.7-15.1-1.5-34.3-31.5-38.1-45-1.2-4.5-3.8-15.2-.3-18.8h0Z"/>
  <path class="st3" d="M729.2,502.6l1,44c-9.9-.2-19,4.9-26.5,11-10.6-14.9,3-33.6,1.6-50.3,1-3.2,20.1-5.4,23.9-4.6h0Z"/>
  <path class="st0" d="M570.2,816.6c-2.2-9.9-6.5-17.9-8.8-26.7-.2-.8-.7-2.2.3-2.3,21.8,5,44,7.8,66.4,8.1,2.2,6.5,3.5,13.2,5.1,19.9-14.8-5.2-31.5-8.3-47-4.5-5.5,1.4-10.2,5-16,5.5h0Z"/>
  <path class="st3" d="M822.1,918.5c-.5-2.4.4-1.6,1.3-2.2,2-1.4,3.3-1.3,5.1-3.8,14.7-19.6-10.2-72-26-87-.8-.8-4.4-1.3-1.9-3,2-1.3,6.6-1,8.4.6,1.2,1,1.1,3.2,2.5,4.5,1.5,1.5,4,1.4,5.5,2.5,5.7,4.2,18.9,26.3,21.6,33.4,4.7,12.8,8.1,42,.7,53.7-5.6,8.8-9.5,3.9-17.2,1.3h0Z"/>
  <path class="st3" d="M803.9,520.8c3.6,3.5-1.8,11.7-4,15.1-7.4,11.5-22,25.9-37.1,22.5-.6-.1-5.4-2.7-5.6-3-2.2-3.8,14.3-21.4,18-24.3,4.6-3.7,23.8-15.2,28.7-10.3h0Z"/>
  <path class="st3" d="M765.9,1135.8c11-1.6,21.2,5.6,9.3,12.3-6.1,3.4-13.7,5.3-20,9-5.8,3.4-15,14.4-20.6,14.3-3.1,0-5.2-2.5-5.5-5.4-1.6-15.4,24.1-28.4,36.8-30.3h0Z"/>
  <path class="st3" d="M368,1123.7c5.2-.7,14.5,4.9,12.5,9.5s-13.5,8.4-18.3,14.8c-5,6.8-5.1,21.3-17.3,13.3-1.9-1.2-4.5-3.7-4.4-6.2,0-1.6,4.8-14.2,5.9-16,3.7-5.8,14.7-14.4,21.6-15.4Z"/>
  <path class="st3" d="M651.2,810.6c5.3,10.5,8.2,21.9,9.9,33.6,1,7.3,1.9,16.5,2.2,23.8.2,5.8.3,38.7-2.3,41.3-.4.4-7.7,2.7-6.8-.2-.8-19.7,1.2-40.4,0-60-.7-11.6-4.8-25-5-36,0-2-.6-2.9,2-2.5h0Z"/>
  <path class="st3" d="M542.2,464.6l18.5,13,1.5,2.5c-4.3,2.6-33.3,22.1-35.5,21.5-1.4-.4-1.4-1.8-1.1-3,.4-1.8,4.1-10.5,5.1-12.9,3.2-7.4,7.7-14,11.5-21h0Z"/>
  <path class="st3" d="M376.2,919.6v1c-20.2,1.2-38.1.8-58-3.5-10.8-2.3-33.6-5.9-25.5-21.5,2.2,2.2,4.1,4.5,6.8,6.2,13.7,8.9,60.5,19.1,76.7,17.8h0Z"/>
  <path class="st3" d="M461.2,489.6c0,1.4.6,3.2-.6,4.1-37,15.8-75.1,29.1-109.4,50.4-1.7.8-9.5-.2-10-1.6l120-53h0Z"/>
  <path class="st3" d="M631.4,1203.2c-4.4-4,1.2-22,7.5-23.6,3.2-.8,6.3,2.1,6.3,5.3,0,.8-4.3,14.1-4.9,15.2-1.7,3.5-5.6,6.1-9,3h0Z"/>
  <path class="st3" d="M809.1,632.6c-.8.9-10.8-5.2-12.3-6.2-1.4-.9-11.3-8.2-9.7-9.8,4.1,1.6,11.7-5.7,14-4.6,6.1,3.1,9.4,14.1,8,20.5h0Z"/>
  <path class="st3" d="M493.9,1154.8c5.6,5.5-7.5,11.9-11.4,13.6-4.7,2-10.9,5.3-13.6-1.2-1.9-4.6,6.2-5.5,9.3-7.2,3.9-2.2,11.8-9.2,15.7-5.3h0Z"/>
  <path class="st3" d="M476,1128.8c.3,4.7,6.7,10.8,7.2,14.3.6,3.9-3.7,8.1-6.9,4.8-1.8-1.9-11.9-18-12.1-19.9-.3-2.2.9-1.6,2.5-1.5,1.8.2,8.4,1.3,9.3,2.2h0Z"/>
  <path class="st3" d="M369.2,894.6c.8-.8,15.4,7.1,16.9,8.5,1.6,1.6,3.9,4.4.8,5.7-5,2.2-12.4,1.6-17.8,1.7v-16h0Z"/>
  <path class="st3" d="M807.1,848.5c-.5.6-13.7,2.4-16,3-.3-6.7.7-13.4,2-20,3.1-2.1,16.2,14.3,14,17h0Z"/>
  <path class="st3" d="M317.2,882.6l-1,16c-1.9,1.8-14.8-4.5-15.9-7.6-.6-3.5,13.4-9.5,16.9-8.4Z"/>
  <path class="st3" d="M633.2,1154.5c.6-4.5-6.3-23.8-4.6-26.1,1-1.4,5.1-1.3,6.6-.4,4.1,2.5,5.4,24.5-2,26.5Z"/>
  <path class="st3" d="M524.2,877.6c0,10-.3,20-1,30-1.3,1.4-6.6-3.3-8-4,1.4-8.8,5.1-18,9-26h0Z"/>
  <path class="st3" d="M763.1,482.6l-17,8,6.5-17c2,.8,11.8,7.1,10.5,9h0Z"/>
  <path class="st3" d="M824.1,895.6c-.2,13.6-6.5,18-12,3.5.3-1.4,10-3.1,12-3.5Z"/>
  <path class="st3" d="M815.1,599.6c.4.5-2,8.6-2.5,10-.4,1-.2,2.7-1.9,2-.8-.3-4.7-4.3-4.5-5.4.1-.7,8.3-7.3,9-6.6h0Z"/>
  <path class="st0" d="M376.2,919.6c1.3,0,14.8-4.1,15-2.5.8,5.6-11,3.2-15,3.5v-1Z"/>
  <path class="st0" d="M749.2,470.6c-.3.3,0,1.8-1.6,2.9-1.5,1-3.6,1.2-5.4,1.1,1.9-4.6.8-5.7,7-4Z"/>
  <path class="st3" d="M642.2,630.6c1.6,1.6-7.3,6.6-9,6l9-6Z"/>
  <path class="st3" d="M643.2,630.6c-1.5-1.5,2.7-3.2,3.5-4,.5,1.5-2.3,5.1-3.5,4Z"/>
  <path class="st3" d="M648.7,625.6c.7.3.7.7,0,1v-1Z"/>
  <path class="st1" d="M489.5,645.9c5.8-5.6,22-14.9,30-12.2,2.5.8,2.3,6.2.2,7.9s-20.4,4.2-19.5,9.3c.2.9,11.5,10.7,13.2,11.9,11.1,7.8,29.2,14.2,42.3,17.7,40.9,11,83.8,11.4,125.9,11.1,6.7,3.9,2.4,8.3-4,9-11.6,1.2-30,.5-42,0-39.6-1.5-96.2-8.8-129.2-31.8-2.7-1.9-12.1-11-12.9-11.2-5.8-1-10,24.5-14.1,25.8-2,.6-4.8.2-5.8-1.8-3.4-6.7,10.4-30.4,15.9-35.7h0Z"/>
  <path class="st1" d="M304.4,968.8c3-3,7.2-1.2,7.8,3.2.7,5.4.9,31.1,0,36s-8.2,4.6-9-2c-.9-7.1-.6-24.7,0-32.1.1-1.6.2-4.1,1.3-5.2h0Z"/>
  <path class="st1" d="M376.4,1014.3c-3.5-3.5,1.3-29.9-.1-36.2,0-5.3,7.8-6.5,8.9-1,1,5,.6,25.3,0,30.8-.6,4.7-3.8,11.2-8.6,6.4h0Z"/>
  <path class="st1" d="M348,1021.3c-2.3,2.3-6,1.5-7.5-1.5-2-3.8-2-30.8.3-34.2,2.6-3.8,7.7-1.5,8.4,2.5.9,5,.5,22.4,0,28-.1,1.6-.2,4.1-1.3,5.2Z"/>
</svg>