<svg width="114" height="163" viewBox="0 0 114 163" fill="none" xmlns="http://www.w3.org/2000/svg">
<path d="M94.9991 47H86.3419C83.1525 47 69.4832 40.0769 69.0276 28.3076C68.572 16.5383 73.8118 9.61519 80.6464 5.46132C87.481 1.30745 101.378 2.23053 107.529 9.61518C113.68 16.9998 114.136 25.0768 111.402 34.3076C109.215 41.6923 99.5555 45.8461 94.9991 47Z" fill="white" stroke="black"/>
<path d="M58.658 89.3689L81.1336 37C84.5498 39.3476 87.8013 40.085 89 40.1602L64.5016 93.8835L35.5081 109.007L26.0684 130L20 127.291L31.013 102.913L58.658 89.3689Z" fill="white" stroke="black"/>
<path d="M19.6217 127.374C15.6168 126.1 13.2502 127.904 12.5676 128.966L3.01031 148.525C-0.630555 153.256 1.49328 156.713 3.01031 157.85L12.5676 161.716C16.9366 162.99 19.0908 159.669 19.6217 157.85L28.0412 139.428C30.2258 135.243 28.9515 132.377 28.0412 131.468C26.9035 130.634 23.6267 128.647 19.6217 127.374Z" fill="white"/>
<path d="M95.3972 2.74008C96.3074 1.83035 98.765 0.283796 101.314 1.37548C102.451 1.5271 104.681 2.92203 104.499 7.28875L102.907 10.7003C106.092 13.202 111.508 20.9803 107.685 32.079C106.016 35.9454 99.6752 43.4507 87.6604 42.541L79.9236 39.5843C75.5242 35.3389 68.5459 24.3008 75.8276 14.1118C77.9514 11.0889 84.5657 5.26782 94.0319 6.16601L95.3972 2.74008Z" fill="white"/>
<path d="M101.314 14.1118C104.727 17.5991 109.506 26.6206 101.314 34.8082C99.1898 37.7649 92.348 42.3135 81.9715 36.8551C78.0273 33.2162 72.0957 23.573 79.9236 14.1118C82.3231 11.8134 87.2136 8.90907 92.6666 9.59195M101.314 14.1118C98.4587 11.2583 95.4874 9.94519 92.6666 9.59195M101.314 14.1118L102.907 10.7003M92.6666 9.59195L94.0319 6.16601M94.0319 6.16601L95.3972 2.74008C96.3074 1.83035 98.765 0.283796 101.314 1.37548C102.451 1.5271 104.681 2.92203 104.499 7.28875L102.907 10.7003M94.0319 6.16601C84.5657 5.26782 77.9514 11.0889 75.8276 14.1118C68.5459 24.3008 75.5242 35.3389 79.9236 39.5843L87.6604 42.541C99.6752 43.4507 106.016 35.9454 107.685 32.079C111.508 20.9803 106.092 13.202 102.907 10.7003M12.5676 128.966C13.2502 127.904 15.6168 126.1 19.6217 127.374C23.6267 128.647 26.9035 130.634 28.0412 131.468C28.9515 132.377 30.2258 135.243 28.0412 139.428L19.6217 157.85C19.0908 159.669 16.9366 162.99 12.5676 161.716L3.01031 157.85C1.49328 156.713 -0.630555 153.256 3.01031 148.525L12.5676 128.966Z" stroke="black"/>
<rect x="3.86578" y="156.385" width="31.2768" height="13.3702" rx="4" transform="rotate(-65.1695 3.86578 156.385)" fill="black"/>
<circle cx="91" cy="25" r="15" fill="black"/>
<path d="M85 37C73.5784 32.1869 73.6973 7.18423 95.5 11C86.0659 9.83123 71.4313 20.3009 85 37Z" fill="white"/>
<path d="M33 105.5L24.5 128L34 108L63.5 93L85.5 43L62.5 91.5L33 105.5Z" fill="black"/>
</svg>
